<?xml version="1.0" encoding="UTF-8" standalone="no"?>
<!DOCTYPE svg PUBLIC "-//W3C//DTD SVG 1.1//EN"
 "http://www.w3.org/Graphics/SVG/1.1/DTD/svg11.dtd">
<!-- Generated by graphviz version 2.44.1 (0)
 -->
<!-- Pages: 1 -->
<svg width="1191pt" height="1266pt"
 viewBox="0.00 0.00 1190.72 1265.70" xmlns="http://www.w3.org/2000/svg" xmlns:xlink="http://www.w3.org/1999/xlink">
<g id="graph0" class="graph" transform="scale(1 1) rotate(0) translate(4 1261.7)">
<polygon fill="#101410" stroke="transparent" points="-4,4 -4,-1261.7 1186.72,-1261.7 1186.72,4 -4,4"/>
<!-- obli -->
<g id="node1" class="node">
<title>obli</title>
<g id="a_node1"><a xlink:href="structures.html#obli" xlink:title="Obelisk of Light *" target="_top">
<polygon fill="none" stroke="#40d040" points="1006.72,-1257.7 887.72,-1257.7 887.72,-1221.7 1006.72,-1221.7 1006.72,-1257.7"/>
<text text-anchor="middle" x="947.22" y="-1236" font-family="Helvetica,sans-Serif" font-size="14.00" fill="#40d040">Obelisk of Light *</text>
</a>
</g>
</g>
<!-- mlrs -->
<g id="node35" class="node">
<title>mlrs</title>
<g id="a_node35"><a xlink:href="units.html#mlrs" xlink:title="SSM Launcher" target="_top">
<polygon fill="none" stroke="#40d040" points="1182.72,-1099.7 1075.72,-1099.7 1075.72,-1063.7 1182.72,-1063.7 1182.72,-1099.7"/>
<text text-anchor="middle" x="1129.22" y="-1078" font-family="Helvetica,sans-Serif" font-size="14.00" fill="#40d040">SSM Launcher</text>
</a>
</g>
</g>
<!-- obli&#45;&gt;mlrs -->
<g id="edge59" class="edge">
<title>obli&#45;&gt;mlrs</title>
<path fill="none" stroke="#40d040" d="M1007.16,-1228.82C1018.65,-1224.96 1030.09,-1219.74 1039.72,-1212.7 1076.33,-1185.9 1102.56,-1139.09 1116.55,-1109.28"/>
<polygon fill="#40d040" stroke="#40d040" points="1119.87,-1110.43 1120.82,-1099.88 1113.5,-1107.54 1119.87,-1110.43"/>
</g>
<!-- hq -->
<g id="node2" class="node">
<title>hq</title>
<g id="a_node2"><a xlink:href="structures.html#hq" xlink:title="Communications center" target="_top">
<polygon fill="none" stroke="#40d040" points="818.72,-1003.7 658.72,-1003.7 658.72,-967.7 818.72,-967.7 818.72,-1003.7"/>
<text text-anchor="middle" x="738.72" y="-982" font-family="Helvetica,sans-Serif" font-size="14.00" fill="#40d040">Communications center</text>
</a>
</g>
</g>
<!-- hq&#45;&gt;obli -->
<g id="edge1" class="edge">
<title>hq&#45;&gt;obli</title>
<path fill="none" stroke="#40d040" d="M802.54,-1003.85C808.64,-1007.63 814.23,-1012.2 818.72,-1017.7 874.42,-1085.99 795.73,-1147.22 854.72,-1212.7 861.13,-1219.82 869.33,-1225.11 878.17,-1229.02"/>
<polygon fill="#40d040" stroke="#40d040" points="876.97,-1232.31 887.56,-1232.61 879.48,-1225.77 876.97,-1232.31"/>
</g>
<!-- tmpl -->
<g id="node16" class="node">
<title>tmpl</title>
<g id="a_node16"><a xlink:href="structures.html#tmpl" xlink:title="Temple of Nod *" target="_top">
<polygon fill="none" stroke="#40d040" points="1003.72,-619.7 890.72,-619.7 890.72,-583.7 1003.72,-583.7 1003.72,-619.7"/>
<text text-anchor="middle" x="947.22" y="-598" font-family="Helvetica,sans-Serif" font-size="14.00" fill="#40d040">Temple of Nod *</text>
</a>
</g>
</g>
<!-- hq&#45;&gt;tmpl -->
<g id="edge32" class="edge">
<title>hq&#45;&gt;tmpl</title>
<path fill="none" stroke="#40d040" d="M771.09,-967.7C787.91,-956.38 807.44,-940.23 818.72,-920.7 867.39,-836.42 812.76,-792.51 854.72,-704.7 869.35,-674.08 895.86,-645.76 916.6,-626.6"/>
<polygon fill="#40d040" stroke="#40d040" points="919.15,-629.02 924.23,-619.72 914.46,-623.82 919.15,-629.02"/>
</g>
<!-- stnk -->
<g id="node28" class="node">
<title>stnk</title>
<g id="a_node28"><a xlink:href="units.html#stnk" xlink:title="Stealth Tank *" target="_top">
<polygon fill="none" stroke="#40d040" points="997.22,-1149.7 897.22,-1149.7 897.22,-1113.7 997.22,-1113.7 997.22,-1149.7"/>
<text text-anchor="middle" x="947.22" y="-1128" font-family="Helvetica,sans-Serif" font-size="14.00" fill="#40d040">Stealth Tank *</text>
</a>
</g>
</g>
<!-- hq&#45;&gt;stnk -->
<g id="edge47" class="edge">
<title>hq&#45;&gt;stnk</title>
<path fill="none" stroke="#40d040" d="M799.46,-1003.73C806.5,-1007.57 813.15,-1012.17 818.72,-1017.7 848.42,-1047.18 823.61,-1076.71 854.72,-1104.7 863.86,-1112.92 875.39,-1118.65 887.15,-1122.63"/>
<polygon fill="#40d040" stroke="#40d040" points="886.46,-1126.08 897.05,-1125.58 888.46,-1119.37 886.46,-1126.08"/>
</g>
<!-- ftnk -->
<g id="node29" class="node">
<title>ftnk</title>
<g id="a_node29"><a xlink:href="units.html#ftnk" xlink:title="Flame Tank" target="_top">
<polygon fill="none" stroke="#40d040" points="990.72,-1203.7 903.72,-1203.7 903.72,-1167.7 990.72,-1167.7 990.72,-1203.7"/>
<text text-anchor="middle" x="947.22" y="-1182" font-family="Helvetica,sans-Serif" font-size="14.00" fill="#40d040">Flame Tank</text>
</a>
</g>
</g>
<!-- hq&#45;&gt;ftnk -->
<g id="edge49" class="edge">
<title>hq&#45;&gt;ftnk</title>
<path fill="none" stroke="#40d040" d="M801.79,-1003.92C808.11,-1007.7 813.95,-1012.24 818.72,-1017.7 861.26,-1066.41 809.84,-1112.13 854.72,-1158.7 865.08,-1169.45 879.5,-1175.98 893.83,-1179.93"/>
<polygon fill="#40d040" stroke="#40d040" points="893.15,-1183.36 903.68,-1182.27 894.76,-1176.55 893.15,-1183.36"/>
</g>
<!-- gun -->
<g id="node3" class="node">
<title>gun</title>
<g id="a_node3"><a xlink:href="structures.html#gun" xlink:title="Turret" target="_top">
<polygon fill="none" stroke="#40d040" points="765.72,-397.7 711.72,-397.7 711.72,-361.7 765.72,-361.7 765.72,-397.7"/>
<text text-anchor="middle" x="738.72" y="-376" font-family="Helvetica,sans-Serif" font-size="14.00" fill="#40d040">Turret</text>
</a>
</g>
</g>
<!-- fact -->
<g id="node4" class="node">
<title>fact</title>
<g id="a_node4"><a xlink:href="structures.html#fact" xlink:title="Construction Yard" target="_top">
<polygon fill="none" stroke="#40d040" points="129.72,-611.7 4.72,-611.7 4.72,-575.7 129.72,-575.7 129.72,-611.7"/>
<text text-anchor="middle" x="67.22" y="-590" font-family="Helvetica,sans-Serif" font-size="14.00" fill="#40d040">Construction Yard</text>
</a>
</g>
</g>
<!-- fact&#45;&gt;obli -->
<g id="edge2" class="edge">
<title>fact&#45;&gt;obli</title>
<path fill="none" stroke="#40d040" stroke-dasharray="1,5" d="M68.34,-611.96C69.68,-667.12 80.91,-834.27 165.72,-931.7 237.44,-1014.08 280.99,-1031.7 390.22,-1031.7 390.22,-1031.7 390.22,-1031.7 564.22,-1031.7 716.34,-1031.7 715.95,-1150.38 854.72,-1212.7 862.02,-1215.98 869.83,-1218.98 877.69,-1221.7"/>
<polygon fill="#40d040" stroke="#40d040" points="876.68,-1225.05 887.28,-1224.87 878.88,-1218.41 876.68,-1225.05"/>
</g>
<!-- fact&#45;&gt;hq -->
<g id="edge4" class="edge">
<title>fact&#45;&gt;hq</title>
<path fill="none" stroke="#40d040" stroke-dasharray="1,5" d="M68.69,-611.75C71.03,-662.49 84.82,-807.67 165.72,-883.7 296.91,-1006.99 523.21,-1007.95 648.23,-997.22"/>
<polygon fill="#40d040" stroke="#40d040" points="648.88,-1000.68 658.53,-996.29 648.25,-993.7 648.88,-1000.68"/>
</g>
<!-- fact&#45;&gt;gun -->
<g id="edge6" class="edge">
<title>fact&#45;&gt;gun</title>
<path fill="none" stroke="#40d040" stroke-dasharray="1,5" d="M125.72,-575.64C138.8,-571.79 152.69,-567.93 165.72,-564.7 366.74,-514.9 435.42,-562.08 622.72,-473.7 658.18,-456.96 692.09,-426.94 713.78,-405.32"/>
<polygon fill="#40d040" stroke="#40d040" points="716.41,-407.65 720.92,-398.06 711.42,-402.74 716.41,-407.65"/>
</g>
<!-- proc -->
<g id="node5" class="node">
<title>proc</title>
<g id="a_node5"><a xlink:href="structures.html#proc" xlink:title="Tiberium refinery" target="_top">
<polygon fill="none" stroke="#40d040" points="622.72,-911.7 503.72,-911.7 503.72,-875.7 622.72,-875.7 622.72,-911.7"/>
<text text-anchor="middle" x="563.22" y="-890" font-family="Helvetica,sans-Serif" font-size="14.00" fill="#40d040">Tiberium refinery</text>
</a>
</g>
</g>
<!-- fact&#45;&gt;proc -->
<g id="edge10" class="edge">
<title>fact&#45;&gt;proc</title>
<path fill="none" stroke="#40d040" stroke-dasharray="1,5" d="M69.93,-611.75C75.25,-657.39 95.59,-778.36 165.72,-842.7 254.64,-924.28 405.66,-918.57 493.42,-906.51"/>
<polygon fill="#40d040" stroke="#40d040" points="494.14,-909.94 503.54,-905.05 493.15,-903.01 494.14,-909.94"/>
</g>
<!-- silo -->
<g id="node6" class="node">
<title>silo</title>
<g id="a_node6"><a xlink:href="structures.html#silo" xlink:title="Tiberium silo" target="_top">
<polygon fill="none" stroke="#40d040" points="785.72,-857.7 691.72,-857.7 691.72,-821.7 785.72,-821.7 785.72,-857.7"/>
<text text-anchor="middle" x="738.72" y="-836" font-family="Helvetica,sans-Serif" font-size="14.00" fill="#40d040">Tiberium silo</text>
</a>
</g>
</g>
<!-- fact&#45;&gt;silo -->
<g id="edge12" class="edge">
<title>fact&#45;&gt;silo</title>
<path fill="none" stroke="#40d040" stroke-dasharray="1,5" d="M129.8,-602.9C141.71,-604.58 154.09,-606.25 165.72,-607.7 267.05,-620.29 546.04,-588.26 622.72,-655.7 674.84,-701.55 613.5,-755.02 658.72,-807.7 665.08,-815.12 673.42,-820.84 682.3,-825.24"/>
<polygon fill="#40d040" stroke="#40d040" points="681.11,-828.54 691.67,-829.37 683.93,-822.14 681.11,-828.54"/>
</g>
<!-- hpad -->
<g id="node7" class="node">
<title>hpad</title>
<g id="a_node7"><a xlink:href="structures.html#hpad" xlink:title="Orca/Apache Helipad" target="_top">
<polygon fill="none" stroke="#40d040" stroke-dasharray="5,2" points="811.72,-343.7 665.72,-343.7 665.72,-307.7 811.72,-307.7 811.72,-343.7"/>
<text text-anchor="middle" x="738.72" y="-322" font-family="Helvetica,sans-Serif" font-size="14.00" fill="#40d040">Orca/Apache Helipad</text>
</a>
</g>
</g>
<!-- fact&#45;&gt;hpad -->
<g id="edge14" class="edge">
<title>fact&#45;&gt;hpad</title>
<path fill="none" stroke="#40d040" stroke-dasharray="1,5" d="M96.27,-575.6C115.25,-564 141.24,-549.37 165.72,-539.7 263.12,-501.23 541.08,-490.29 622.72,-424.7 650.61,-402.29 631.78,-376.24 658.72,-352.7 660.03,-351.55 661.39,-350.45 662.8,-349.4"/>
<polygon fill="#40d040" stroke="#40d040" points="664.83,-352.26 671.28,-343.86 661,-346.4 664.83,-352.26"/>
</g>
<!-- sam -->
<g id="node8" class="node">
<title>sam</title>
<g id="a_node8"><a xlink:href="structures.html#sam" xlink:title="SAM site" target="_top">
<polygon fill="none" stroke="#40d040" points="774.22,-289.7 703.22,-289.7 703.22,-253.7 774.22,-253.7 774.22,-289.7"/>
<text text-anchor="middle" x="738.72" y="-268" font-family="Helvetica,sans-Serif" font-size="14.00" fill="#40d040">SAM site</text>
</a>
</g>
</g>
<!-- fact&#45;&gt;sam -->
<g id="edge16" class="edge">
<title>fact&#45;&gt;sam</title>
<path fill="none" stroke="#40d040" stroke-dasharray="1,5" d="M84.99,-575.56C103.28,-556.67 134.19,-527.29 165.72,-508.7 351.87,-398.95 446.43,-467.68 622.72,-342.7 643.33,-328.09 637.97,-313.12 658.72,-298.7 669.04,-291.53 681.43,-286.12 693.31,-282.1"/>
<polygon fill="#40d040" stroke="#40d040" points="694.61,-285.36 703.11,-279.04 692.52,-278.68 694.61,-285.36"/>
</g>
<!-- afld -->
<g id="node9" class="node">
<title>afld</title>
<g id="a_node9"><a xlink:href="structures.html#afld" xlink:title="Delivery Airstrip" target="_top">
<polygon fill="none" stroke="#40d040" points="794.22,-911.7 683.22,-911.7 683.22,-875.7 794.22,-875.7 794.22,-911.7"/>
<text text-anchor="middle" x="738.72" y="-890" font-family="Helvetica,sans-Serif" font-size="14.00" fill="#40d040">Delivery Airstrip</text>
</a>
</g>
</g>
<!-- fact&#45;&gt;afld -->
<g id="edge18" class="edge">
<title>fact&#45;&gt;afld</title>
<path fill="none" stroke="#40d040" stroke-dasharray="1,5" d="M128.8,-611.76C141.02,-615.39 153.78,-619.17 165.72,-622.7 368.71,-682.65 470.74,-609.37 622.72,-756.7 659.65,-792.5 622.58,-830.09 658.72,-866.7 663.13,-871.17 668.31,-874.9 673.87,-878.01"/>
<polygon fill="#40d040" stroke="#40d040" points="672.35,-881.16 682.87,-882.41 675.42,-874.87 672.35,-881.16"/>
</g>
<!-- nuke -->
<g id="node10" class="node">
<title>nuke</title>
<g id="a_node10"><a xlink:href="structures.html#nuke" xlink:title="Power plant" target="_top">
<polygon fill="none" stroke="#40d040" points="266.22,-805.7 178.22,-805.7 178.22,-769.7 266.22,-769.7 266.22,-805.7"/>
<text text-anchor="middle" x="222.22" y="-784" font-family="Helvetica,sans-Serif" font-size="14.00" fill="#40d040">Power plant</text>
</a>
</g>
</g>
<!-- fact&#45;&gt;nuke -->
<g id="edge19" class="edge">
<title>fact&#45;&gt;nuke</title>
<path fill="none" stroke="#40d040" stroke-dasharray="1,5" d="M75.44,-611.74C89.06,-643.94 121.2,-712.01 165.72,-755.7 168.71,-758.64 172.02,-761.4 175.5,-763.98"/>
<polygon fill="#40d040" stroke="#40d040" points="173.6,-766.92 183.83,-769.66 177.54,-761.14 173.6,-766.92"/>
</g>
<!-- nuk2 -->
<g id="node11" class="node">
<title>nuk2</title>
<g id="a_node11"><a xlink:href="structures.html#nuk2" xlink:title="Advanced Power Plant" target="_top">
<polygon fill="none" stroke="#40d040" points="467.72,-847.7 314.72,-847.7 314.72,-811.7 467.72,-811.7 467.72,-847.7"/>
<text text-anchor="middle" x="391.22" y="-826" font-family="Helvetica,sans-Serif" font-size="14.00" fill="#40d040">Advanced Power Plant</text>
</a>
</g>
</g>
<!-- fact&#45;&gt;nuk2 -->
<g id="edge21" class="edge">
<title>fact&#45;&gt;nuk2</title>
<path fill="none" stroke="#40d040" stroke-dasharray="1,5" d="M70.06,-611.91C75.54,-655.51 95.99,-765.86 165.72,-814.7 205.43,-842.51 259.4,-846.88 304.47,-844"/>
<polygon fill="#40d040" stroke="#40d040" points="304.84,-847.49 314.54,-843.23 304.3,-840.51 304.84,-847.49"/>
</g>
<!-- hosp -->
<g id="node12" class="node">
<title>hosp</title>
<g id="a_node12"><a xlink:href="structures.html#hosp" xlink:title="Civilian hospital" target="_top">
<polygon fill="none" stroke="#40d040" points="793.72,-235.7 683.72,-235.7 683.72,-199.7 793.72,-199.7 793.72,-235.7"/>
<text text-anchor="middle" x="738.72" y="-214" font-family="Helvetica,sans-Serif" font-size="14.00" fill="#40d040">Civilian hospital</text>
</a>
</g>
</g>
<!-- fact&#45;&gt;hosp -->
<g id="edge23" class="edge">
<title>fact&#45;&gt;hosp</title>
<path fill="none" stroke="#40d040" stroke-dasharray="1,5" d="M76.74,-575.33C91.2,-545.96 123.17,-488.23 165.72,-453.7 323.61,-325.57 560.73,-257.89 673.6,-231.32"/>
<polygon fill="#40d040" stroke="#40d040" points="674.52,-234.7 683.47,-229.03 672.94,-227.88 674.52,-234.7"/>
</g>
<!-- fix -->
<g id="node13" class="node">
<title>fix</title>
<g id="a_node13"><a xlink:href="structures.html#fix" xlink:title="Repair facility" target="_top">
<polygon fill="none" stroke="#40d040" points="612.22,-801.7 514.22,-801.7 514.22,-765.7 612.22,-765.7 612.22,-801.7"/>
<text text-anchor="middle" x="563.22" y="-780" font-family="Helvetica,sans-Serif" font-size="14.00" fill="#40d040">Repair facility</text>
</a>
</g>
</g>
<!-- fact&#45;&gt;fix -->
<g id="edge26" class="edge">
<title>fact&#45;&gt;fix</title>
<path fill="none" stroke="#40d040" stroke-dasharray="1,5" d="M82.8,-611.76C100.33,-632.27 131.68,-665.27 165.72,-683.7 276.1,-743.46 423.15,-768.38 503.56,-778.07"/>
<polygon fill="#40d040" stroke="#40d040" points="503.64,-781.6 513.98,-779.28 504.45,-774.65 503.64,-781.6"/>
</g>
<!-- bio -->
<g id="node14" class="node">
<title>bio</title>
<g id="a_node14"><a xlink:href="structures.html#bio" xlink:title="Bio research lab" target="_top">
<polygon fill="none" stroke="#40d040" points="1004.22,-212.7 890.22,-212.7 890.22,-176.7 1004.22,-176.7 1004.22,-212.7"/>
<text text-anchor="middle" x="947.22" y="-191" font-family="Helvetica,sans-Serif" font-size="14.00" fill="#40d040">Bio research lab</text>
</a>
</g>
</g>
<!-- fact&#45;&gt;bio -->
<g id="edge28" class="edge">
<title>fact&#45;&gt;bio</title>
<path fill="none" stroke="#40d040" stroke-dasharray="1,5" d="M72.27,-575.51C82.05,-535.2 110.32,-437.12 165.72,-375.7 216.93,-318.92 244.35,-319.6 314.72,-289.7 461.14,-227.47 501.18,-212.92 658.72,-190.7 729.13,-180.77 747.61,-189.58 818.72,-190.7 838.61,-191.01 860.24,-191.6 879.95,-192.23"/>
<polygon fill="#40d040" stroke="#40d040" points="879.94,-195.73 890.05,-192.56 880.17,-188.73 879.94,-195.73"/>
</g>
<!-- hand -->
<g id="node15" class="node">
<title>hand</title>
<g id="a_node15"><a xlink:href="structures.html#hand" xlink:title="Hand of Nod" target="_top">
<polygon fill="none" stroke="#40d040" points="609.22,-565.7 517.22,-565.7 517.22,-529.7 609.22,-529.7 609.22,-565.7"/>
<text text-anchor="middle" x="563.22" y="-544" font-family="Helvetica,sans-Serif" font-size="14.00" fill="#40d040">Hand of Nod</text>
</a>
</g>
</g>
<!-- fact&#45;&gt;hand -->
<g id="edge31" class="edge">
<title>fact&#45;&gt;hand</title>
<path fill="none" stroke="#40d040" stroke-dasharray="1,5" d="M129.78,-584.27C141.68,-582.61 154.08,-581 165.72,-579.7 286.98,-566.11 429.73,-556.04 506.55,-551.1"/>
<polygon fill="#40d040" stroke="#40d040" points="507.18,-554.57 516.94,-550.44 506.74,-547.58 507.18,-554.57"/>
</g>
<!-- fact&#45;&gt;tmpl -->
<g id="edge33" class="edge">
<title>fact&#45;&gt;tmpl</title>
<path fill="none" stroke="#40d040" stroke-dasharray="1,5" d="M129.87,-591.64C266.48,-587.67 585.58,-581.85 622.72,-612.7 679.45,-659.83 601.18,-728.55 658.72,-774.7 714.19,-819.2 762.63,-818.42 818.72,-774.7 870.41,-734.41 810.03,-679.64 854.72,-631.7 861.89,-624.01 871.06,-618.28 880.81,-614.03"/>
<polygon fill="#40d040" stroke="#40d040" points="882.22,-617.24 890.3,-610.38 879.71,-610.7 882.22,-617.24"/>
</g>
<!-- sbag -->
<g id="node17" class="node">
<title>sbag</title>
<g id="a_node17"><a xlink:href="structures.html#sbag" xlink:title="Sandbag wall" target="_top">
<polygon fill="none" stroke="#40d040" points="271.22,-173.7 173.22,-173.7 173.22,-137.7 271.22,-137.7 271.22,-173.7"/>
<text text-anchor="middle" x="222.22" y="-152" font-family="Helvetica,sans-Serif" font-size="14.00" fill="#40d040">Sandbag wall</text>
</a>
</g>
</g>
<!-- fact&#45;&gt;sbag -->
<g id="edge34" class="edge">
<title>fact&#45;&gt;sbag</title>
<path fill="none" stroke="#40d040" stroke-dasharray="1,5" d="M67.74,-575.4C67.06,-514.06 72.43,-312.55 165.72,-187.7 167.71,-185.03 170.01,-182.54 172.5,-180.23"/>
<polygon fill="#40d040" stroke="#40d040" points="174.85,-182.84 180.46,-173.85 170.47,-177.37 174.85,-182.84"/>
</g>
<!-- cycl -->
<g id="node18" class="node">
<title>cycl</title>
<g id="a_node18"><a xlink:href="structures.html#cycl" xlink:title="Chainlink Fence" target="_top">
<polygon fill="none" stroke="#40d040" points="278.72,-119.7 165.72,-119.7 165.72,-83.7 278.72,-83.7 278.72,-119.7"/>
<text text-anchor="middle" x="222.22" y="-98" font-family="Helvetica,sans-Serif" font-size="14.00" fill="#40d040">Chainlink Fence</text>
</a>
</g>
</g>
<!-- fact&#45;&gt;cycl -->
<g id="edge35" class="edge">
<title>fact&#45;&gt;cycl</title>
<path fill="none" stroke="#40d040" stroke-dasharray="1,5" d="M69.89,-575.61C77.3,-498.9 109.28,-201.06 165.72,-128.7 166.29,-127.96 166.9,-127.24 167.52,-126.54"/>
<polygon fill="#40d040" stroke="#40d040" points="169.97,-129.04 174.99,-119.71 165.25,-123.87 169.97,-129.04"/>
</g>
<!-- brik -->
<g id="node19" class="node">
<title>brik</title>
<g id="a_node19"><a xlink:href="structures.html#brik" xlink:title="Concrete wall" target="_top">
<polygon fill="none" stroke="#40d040" points="271.22,-65.7 173.22,-65.7 173.22,-29.7 271.22,-29.7 271.22,-65.7"/>
<text text-anchor="middle" x="222.22" y="-44" font-family="Helvetica,sans-Serif" font-size="14.00" fill="#40d040">Concrete wall</text>
</a>
</g>
</g>
<!-- fact&#45;&gt;brik -->
<g id="edge36" class="edge">
<title>fact&#45;&gt;brik</title>
<path fill="none" stroke="#40d040" stroke-dasharray="1,5" d="M69.47,-575.5C75.43,-493.22 103.35,-156.42 165.72,-74.7 166.19,-74.08 166.69,-73.47 167.2,-72.87"/>
<polygon fill="#40d040" stroke="#40d040" points="169.77,-75.25 174.65,-65.85 164.97,-70.16 169.77,-75.25"/>
</g>
<!-- barb -->
<g id="node20" class="node">
<title>barb</title>
<g id="a_node20"><a xlink:href="structures.html#barb" xlink:title="Barbed wire" target="_top">
<polygon fill="none" stroke="#40d040" points="266.72,-1095.7 177.72,-1095.7 177.72,-1059.7 266.72,-1059.7 266.72,-1095.7"/>
<text text-anchor="middle" x="222.22" y="-1074" font-family="Helvetica,sans-Serif" font-size="14.00" fill="#40d040">Barbed wire</text>
</a>
</g>
</g>
<!-- fact&#45;&gt;barb -->
<g id="edge37" class="edge">
<title>fact&#45;&gt;barb</title>
<path fill="none" stroke="#40d040" stroke-dasharray="1,5" d="M70.17,-611.94C78.53,-687.31 113.27,-973.79 165.72,-1045.7 167.68,-1048.4 169.95,-1050.9 172.42,-1053.22"/>
<polygon fill="#40d040" stroke="#40d040" points="170.37,-1056.06 180.35,-1059.63 174.78,-1050.62 170.37,-1056.06"/>
</g>
<!-- proc&#45;&gt;hq -->
<g id="edge3" class="edge">
<title>proc&#45;&gt;hq</title>
<path fill="none" stroke="#40d040" d="M589.94,-911.82C608.53,-924.47 634.53,-941.25 658.72,-953.7 665.32,-957.1 672.37,-960.39 679.44,-963.5"/>
<polygon fill="#40d040" stroke="#40d040" points="678.48,-966.89 689.05,-967.6 681.23,-960.45 678.48,-966.89"/>
</g>
<!-- proc&#45;&gt;silo -->
<g id="edge11" class="edge">
<title>proc&#45;&gt;silo</title>
<path fill="none" stroke="#40d040" d="M622.47,-875.57C641.67,-869.59 662.96,-862.97 681.97,-857.05"/>
<polygon fill="#40d040" stroke="#40d040" points="683.17,-860.34 691.68,-854.03 681.09,-853.66 683.17,-860.34"/>
</g>
<!-- proc&#45;&gt;afld -->
<g id="edge17" class="edge">
<title>proc&#45;&gt;afld</title>
<path fill="none" stroke="#40d040" d="M622.96,-893.7C639.08,-893.7 656.64,-893.7 673.07,-893.7"/>
<polygon fill="#40d040" stroke="#40d040" points="673.13,-897.2 683.13,-893.7 673.13,-890.2 673.13,-897.2"/>
</g>
<!-- harv -->
<g id="node33" class="node">
<title>harv</title>
<g id="a_node33"><a xlink:href="units.html#harv" xlink:title="Harvester" target="_top">
<polygon fill="none" stroke="#40d040" points="984.72,-1095.7 909.72,-1095.7 909.72,-1059.7 984.72,-1059.7 984.72,-1095.7"/>
<text text-anchor="middle" x="947.22" y="-1074" font-family="Helvetica,sans-Serif" font-size="14.00" fill="#40d040">Harvester</text>
</a>
</g>
</g>
<!-- proc&#45;&gt;harv -->
<g id="edge56" class="edge">
<title>proc&#45;&gt;harv</title>
<path fill="none" stroke="#40d040" d="M622.83,-910.89C634.68,-914.24 647.08,-917.66 658.72,-920.7 729.43,-939.19 763.55,-910.75 818.72,-958.7 851.86,-987.5 822.36,-1021.02 854.72,-1050.7 866.93,-1061.9 883.58,-1068.48 899.33,-1072.32"/>
<polygon fill="#40d040" stroke="#40d040" points="898.98,-1075.83 909.49,-1074.48 900.44,-1068.98 898.98,-1075.83"/>
</g>
<!-- tran -->
<g id="node39" class="node">
<title>tran</title>
<g id="a_node39"><a xlink:href="units.html#tran" xlink:title="Chinook transport helicopter" target="_top">
<polygon fill="none" stroke="#40d040" points="1039.72,-370.7 854.72,-370.7 854.72,-334.7 1039.72,-334.7 1039.72,-370.7"/>
<text text-anchor="middle" x="947.22" y="-349" font-family="Helvetica,sans-Serif" font-size="14.00" fill="#40d040">Chinook transport helicopter</text>
</a>
</g>
</g>
<!-- hpad&#45;&gt;tran -->
<g id="edge65" class="edge">
<title>hpad&#45;&gt;tran</title>
<path fill="none" stroke="#40d040" d="M811.94,-335.14C822.45,-336.52 833.43,-337.95 844.39,-339.38"/>
<polygon fill="#40d040" stroke="#40d040" points="844.06,-342.87 854.43,-340.7 844.97,-335.93 844.06,-342.87"/>
</g>
<!-- heli -->
<g id="node40" class="node">
<title>heli</title>
<g id="a_node40"><a xlink:href="units.html#heli" xlink:title="Apache Gunship" target="_top">
<polygon fill="none" stroke="#40d040" points="1005.72,-316.7 888.72,-316.7 888.72,-280.7 1005.72,-280.7 1005.72,-316.7"/>
<text text-anchor="middle" x="947.22" y="-295" font-family="Helvetica,sans-Serif" font-size="14.00" fill="#40d040">Apache Gunship</text>
</a>
</g>
</g>
<!-- hpad&#45;&gt;heli -->
<g id="edge66" class="edge">
<title>hpad&#45;&gt;heli</title>
<path fill="none" stroke="#40d040" d="M811.94,-316.26C833.63,-313.42 857.33,-310.32 878.7,-307.53"/>
<polygon fill="#40d040" stroke="#40d040" points="879.2,-310.99 888.66,-306.22 878.29,-304.05 879.2,-310.99"/>
</g>
<!-- ltnk -->
<g id="node27" class="node">
<title>ltnk</title>
<g id="a_node27"><a xlink:href="units.html#ltnk" xlink:title="M2&#45;F Bradley Light Tank" target="_top">
<polygon fill="none" stroke="#40d040" points="1029.22,-841.7 865.22,-841.7 865.22,-805.7 1029.22,-805.7 1029.22,-841.7"/>
<text text-anchor="middle" x="947.22" y="-820" font-family="Helvetica,sans-Serif" font-size="14.00" fill="#40d040">M2&#45;F Bradley Light Tank</text>
</a>
</g>
</g>
<!-- afld&#45;&gt;ltnk -->
<g id="edge46" class="edge">
<title>afld&#45;&gt;ltnk</title>
<path fill="none" stroke="#40d040" stroke-dasharray="1,5" d="M794.34,-875.74C802.56,-872.83 810.89,-869.77 818.72,-866.7 835.02,-860.31 838.29,-856.75 854.72,-850.7 860.09,-848.72 865.69,-846.78 871.34,-844.91"/>
<polygon fill="#40d040" stroke="#40d040" points="872.45,-848.23 880.89,-841.83 870.3,-841.57 872.45,-848.23"/>
</g>
<!-- afld&#45;&gt;stnk -->
<g id="edge48" class="edge">
<title>afld&#45;&gt;stnk</title>
<path fill="none" stroke="#40d040" stroke-dasharray="1,5" d="M770.13,-911.77C786.85,-923.21 806.6,-939.46 818.72,-958.7 854.33,-1015.25 808.54,-1056.39 854.72,-1104.7 863.48,-1113.86 875.18,-1119.96 887.28,-1124.01"/>
<polygon fill="#40d040" stroke="#40d040" points="886.44,-1127.41 897.02,-1126.83 888.39,-1120.69 886.44,-1127.41"/>
</g>
<!-- afld&#45;&gt;ftnk -->
<g id="edge50" class="edge">
<title>afld&#45;&gt;ftnk</title>
<path fill="none" stroke="#40d040" stroke-dasharray="1,5" d="M770.99,-911.76C787.78,-923.09 807.31,-939.24 818.72,-958.7 864.39,-1036.62 794.42,-1091.46 854.72,-1158.7 864.78,-1169.92 879.25,-1176.58 893.72,-1180.49"/>
<polygon fill="#40d040" stroke="#40d040" points="893.16,-1183.96 903.69,-1182.79 894.73,-1177.13 893.16,-1183.96"/>
</g>
<!-- apc -->
<g id="node30" class="node">
<title>apc</title>
<g id="a_node30"><a xlink:href="units.html#apc" xlink:title="APC" target="_top">
<polygon fill="none" stroke="#40d040" stroke-dasharray="5,2" points="974.22,-565.7 920.22,-565.7 920.22,-529.7 974.22,-529.7 974.22,-565.7"/>
<text text-anchor="middle" x="947.22" y="-544" font-family="Helvetica,sans-Serif" font-size="14.00" fill="#40d040">APC</text>
</a>
</g>
</g>
<!-- afld&#45;&gt;apc -->
<g id="edge52" class="edge">
<title>afld&#45;&gt;apc</title>
<path fill="none" stroke="#40d040" stroke-dasharray="1,5" d="M794.5,-883.95C803.77,-880 812.41,-874.46 818.72,-866.7 901.15,-765.19 770.15,-674.43 854.72,-574.7 868.25,-558.74 890.7,-551.96 909.97,-549.18"/>
<polygon fill="#40d040" stroke="#40d040" points="910.45,-552.65 919.99,-548.04 909.66,-545.7 910.45,-552.65"/>
</g>
<!-- msam -->
<g id="node31" class="node">
<title>msam</title>
<g id="a_node31"><a xlink:href="units.html#msam" xlink:title="MLRS *" target="_top">
<polygon fill="none" stroke="#40d040" stroke-dasharray="5,2" points="1161.22,-634.7 1097.22,-634.7 1097.22,-598.7 1161.22,-598.7 1161.22,-634.7"/>
<text text-anchor="middle" x="1129.22" y="-613" font-family="Helvetica,sans-Serif" font-size="14.00" fill="#40d040">MLRS *</text>
</a>
</g>
</g>
<!-- afld&#45;&gt;msam -->
<g id="edge54" class="edge">
<title>afld&#45;&gt;msam</title>
<path fill="none" stroke="#40d040" stroke-dasharray="1,5" d="M794.32,-883.28C803.49,-879.39 812.14,-874.04 818.72,-866.7 867.91,-811.74 805.03,-759.21 854.72,-704.7 886.28,-670.07 1018.79,-638.88 1087.11,-624.73"/>
<polygon fill="#40d040" stroke="#40d040" points="1088,-628.11 1097.1,-622.68 1086.6,-621.26 1088,-628.11"/>
</g>
<!-- bggy -->
<g id="node32" class="node">
<title>bggy</title>
<g id="a_node32"><a xlink:href="units.html#bggy" xlink:title="Dune Buggy" target="_top">
<polygon fill="none" stroke="#40d040" points="992.72,-1041.7 901.72,-1041.7 901.72,-1005.7 992.72,-1005.7 992.72,-1041.7"/>
<text text-anchor="middle" x="947.22" y="-1020" font-family="Helvetica,sans-Serif" font-size="14.00" fill="#40d040">Dune Buggy</text>
</a>
</g>
</g>
<!-- afld&#45;&gt;bggy -->
<g id="edge55" class="edge">
<title>afld&#45;&gt;bggy</title>
<path fill="none" stroke="#40d040" stroke-dasharray="1,5" d="M794.61,-909.89C803.32,-914.09 811.74,-919.29 818.72,-925.7 844.77,-949.64 827.53,-974.06 854.72,-996.7 865.17,-1005.4 878.32,-1011.29 891.37,-1015.29"/>
<polygon fill="#40d040" stroke="#40d040" points="890.72,-1018.74 901.28,-1017.99 892.56,-1011.98 890.72,-1018.74"/>
</g>
<!-- afld&#45;&gt;harv -->
<g id="edge57" class="edge">
<title>afld&#45;&gt;harv</title>
<path fill="none" stroke="#40d040" stroke-dasharray="1,5" d="M794.47,-908.22C803.51,-912.63 812.08,-918.33 818.72,-925.7 857.41,-968.66 813.97,-1009.69 854.72,-1050.7 866.61,-1062.67 883.52,-1069.39 899.58,-1073.14"/>
<polygon fill="#40d040" stroke="#40d040" points="898.92,-1076.58 909.41,-1075.11 900.3,-1069.71 898.92,-1076.58"/>
</g>
<!-- arty -->
<g id="node34" class="node">
<title>arty</title>
<g id="a_node34"><a xlink:href="units.html#arty" xlink:title="Artillery" target="_top">
<polygon fill="none" stroke="#40d040" points="978.22,-987.7 916.22,-987.7 916.22,-951.7 978.22,-951.7 978.22,-987.7"/>
<text text-anchor="middle" x="947.22" y="-966" font-family="Helvetica,sans-Serif" font-size="14.00" fill="#40d040">Artillery</text>
</a>
</g>
</g>
<!-- afld&#45;&gt;arty -->
<g id="edge58" class="edge">
<title>afld&#45;&gt;arty</title>
<path fill="none" stroke="#40d040" stroke-dasharray="1,5" d="M786.04,-911.78C806.97,-919.85 832.03,-929.4 854.72,-937.7 871.6,-943.88 890.33,-950.47 906.42,-956.06"/>
<polygon fill="#40d040" stroke="#40d040" points="905.46,-959.43 916.06,-959.4 907.75,-952.82 905.46,-959.43"/>
</g>
<!-- afld&#45;&gt;mlrs -->
<g id="edge60" class="edge">
<title>afld&#45;&gt;mlrs</title>
<path fill="none" stroke="#40d040" stroke-dasharray="1,5" d="M794.4,-900.18C875.32,-910.13 1019.59,-929.43 1039.72,-942.7 1080.02,-969.27 1105.64,-1021.2 1118.43,-1053.52"/>
<polygon fill="#40d040" stroke="#40d040" points="1115.31,-1055.16 1122.13,-1063.27 1121.85,-1052.68 1115.31,-1055.16"/>
</g>
<!-- mhq -->
<g id="node36" class="node">
<title>mhq</title>
<g id="a_node36"><a xlink:href="units.html#mhq" xlink:title="Mobile Headquarters" target="_top">
<polygon fill="none" stroke="#40d040" points="1018.72,-895.7 875.72,-895.7 875.72,-859.7 1018.72,-859.7 1018.72,-895.7"/>
<text text-anchor="middle" x="947.22" y="-874" font-family="Helvetica,sans-Serif" font-size="14.00" fill="#40d040">Mobile Headquarters</text>
</a>
</g>
</g>
<!-- afld&#45;&gt;mhq -->
<g id="edge61" class="edge">
<title>afld&#45;&gt;mhq</title>
<path fill="none" stroke="#40d040" stroke-dasharray="1,5" d="M794.24,-889.47C815.99,-887.79 841.48,-885.81 865.3,-883.97"/>
<polygon fill="#40d040" stroke="#40d040" points="865.7,-887.45 875.4,-883.19 865.15,-880.47 865.7,-887.45"/>
</g>
<!-- mcv -->
<g id="node37" class="node">
<title>mcv</title>
<g id="a_node37"><a xlink:href="units.html#mcv" xlink:title="MCV" target="_top">
<polygon fill="none" stroke="#40d040" points="1156.22,-695.7 1102.22,-695.7 1102.22,-659.7 1156.22,-659.7 1156.22,-695.7"/>
<text text-anchor="middle" x="1129.22" y="-674" font-family="Helvetica,sans-Serif" font-size="14.00" fill="#40d040">MCV</text>
</a>
</g>
</g>
<!-- afld&#45;&gt;mcv -->
<g id="edge63" class="edge">
<title>afld&#45;&gt;mcv</title>
<path fill="none" stroke="#40d040" stroke-dasharray="1,5" d="M794.53,-881.15C803.25,-877.48 811.7,-872.76 818.72,-866.7 845.19,-843.83 826.85,-817.85 854.72,-796.7 921.58,-745.96 964.95,-796.85 1039.72,-758.7 1065.94,-745.32 1090.19,-722.02 1106.64,-703.83"/>
<polygon fill="#40d040" stroke="#40d040" points="1109.66,-705.71 1113.64,-695.89 1104.4,-701.08 1109.66,-705.71"/>
</g>
<!-- bike -->
<g id="node38" class="node">
<title>bike</title>
<g id="a_node38"><a xlink:href="units.html#bike" xlink:title="Recon Bike" target="_top">
<polygon fill="none" stroke="#40d040" points="990.22,-749.7 904.22,-749.7 904.22,-713.7 990.22,-713.7 990.22,-749.7"/>
<text text-anchor="middle" x="947.22" y="-728" font-family="Helvetica,sans-Serif" font-size="14.00" fill="#40d040">Recon Bike</text>
</a>
</g>
</g>
<!-- afld&#45;&gt;bike -->
<g id="edge64" class="edge">
<title>afld&#45;&gt;bike</title>
<path fill="none" stroke="#40d040" stroke-dasharray="1,5" d="M794.46,-882.3C803.39,-878.5 811.93,-873.44 818.72,-866.7 853.13,-832.53 820.43,-797.99 854.72,-763.7 865.45,-752.97 879.97,-745.82 894.29,-741.07"/>
<polygon fill="#40d040" stroke="#40d040" points="895.53,-744.36 904.12,-738.15 893.54,-737.65 895.53,-744.36"/>
</g>
<!-- nuke&#45;&gt;proc -->
<g id="edge8" class="edge">
<title>nuke&#45;&gt;proc</title>
<path fill="none" stroke="#40d040" d="M241.43,-805.87C258.74,-821.99 286.28,-844.77 314.72,-856.7 371.88,-880.68 442.2,-889.42 493.25,-892.47"/>
<polygon fill="#40d040" stroke="#40d040" points="493.35,-895.98 503.52,-893.02 493.72,-888.99 493.35,-895.98"/>
</g>
<!-- nuke&#45;&gt;nuk2 -->
<g id="edge20" class="edge">
<title>nuke&#45;&gt;nuk2</title>
<path fill="none" stroke="#40d040" d="M266.22,-798.52C279.18,-801.77 293.85,-805.46 308.45,-809.14"/>
<polygon fill="#40d040" stroke="#40d040" points="307.98,-812.63 318.53,-811.67 309.68,-805.84 307.98,-812.63"/>
</g>
<!-- nuke&#45;&gt;fix -->
<g id="edge24" class="edge">
<title>nuke&#45;&gt;fix</title>
<path fill="none" stroke="#40d040" d="M266.5,-787.19C326.85,-786.48 436.47,-785.18 503.96,-784.39"/>
<polygon fill="#40d040" stroke="#40d040" points="504.05,-787.89 514.01,-784.27 503.97,-780.89 504.05,-787.89"/>
</g>
<!-- nuke&#45;&gt;hand -->
<g id="edge29" class="edge">
<title>nuke&#45;&gt;hand</title>
<path fill="none" stroke="#40d040" d="M248.7,-769.66C308.94,-727.01 460.2,-619.92 528.19,-571.79"/>
<polygon fill="#40d040" stroke="#40d040" points="530.3,-574.58 536.44,-565.95 526.26,-568.87 530.3,-574.58"/>
</g>
<!-- nuk2&#45;&gt;proc -->
<g id="edge9" class="edge">
<title>nuk2&#45;&gt;proc</title>
<path fill="none" stroke="#40d040" d="M440.48,-847.87C460.48,-855.4 483.85,-864.2 504.73,-872.06"/>
<polygon fill="#40d040" stroke="#40d040" points="503.54,-875.35 514.13,-875.6 506.01,-868.8 503.54,-875.35"/>
</g>
<!-- nuk2&#45;&gt;fix -->
<g id="edge25" class="edge">
<title>nuk2&#45;&gt;fix</title>
<path fill="none" stroke="#40d040" d="M458.92,-811.65C473.88,-807.6 489.64,-803.34 504.22,-799.39"/>
<polygon fill="#40d040" stroke="#40d040" points="505.36,-802.71 514.1,-796.72 503.53,-795.95 505.36,-802.71"/>
</g>
<!-- nuk2&#45;&gt;hand -->
<g id="edge30" class="edge">
<title>nuk2&#45;&gt;hand</title>
<path fill="none" stroke="#40d040" d="M405.96,-811.4C421.62,-790.25 447.62,-754.19 467.72,-721.7 498.95,-671.19 531.07,-609.61 548.65,-574.91"/>
<polygon fill="#40d040" stroke="#40d040" points="551.83,-576.37 553.21,-565.86 545.58,-573.21 551.83,-576.37"/>
</g>
<!-- hosp&#45;&gt;bio -->
<g id="edge27" class="edge">
<title>hosp&#45;&gt;bio</title>
<path fill="none" stroke="#40d040" d="M793.97,-211.66C820.37,-208.72 852.32,-205.16 880.13,-202.06"/>
<polygon fill="#40d040" stroke="#40d040" points="880.61,-205.53 890.17,-200.94 879.84,-198.57 880.61,-205.53"/>
</g>
<!-- hand&#45;&gt;gun -->
<g id="edge5" class="edge">
<title>hand&#45;&gt;gun</title>
<path fill="none" stroke="#40d040" d="M603.06,-529.66C610.32,-524.94 617.31,-519.29 622.72,-512.7 652.94,-475.86 625.74,-446.1 658.72,-411.7 670.11,-399.81 686.54,-392.21 701.46,-387.41"/>
<polygon fill="#40d040" stroke="#40d040" points="702.83,-390.66 711.47,-384.53 700.89,-383.94 702.83,-390.66"/>
</g>
<!-- hand&#45;&gt;hpad -->
<g id="edge13" class="edge">
<title>hand&#45;&gt;hpad</title>
<path fill="none" stroke="#40d040" d="M581.77,-529.62C594.7,-515.43 611.85,-494.63 622.72,-473.7 648.58,-423.91 619.85,-393.16 658.72,-352.7 659.62,-351.76 660.56,-350.85 661.53,-349.97"/>
<polygon fill="#40d040" stroke="#40d040" points="663.69,-352.72 669.49,-343.86 659.43,-347.17 663.69,-352.72"/>
</g>
<!-- hand&#45;&gt;sam -->
<g id="edge15" class="edge">
<title>hand&#45;&gt;sam</title>
<path fill="none" stroke="#40d040" d="M574.12,-529.36C586.63,-505.69 608.26,-462.97 622.72,-424.7 643.3,-370.21 618.6,-340.92 658.72,-298.7 667.86,-289.08 680.56,-282.89 693.11,-278.9"/>
<polygon fill="#40d040" stroke="#40d040" points="694.36,-282.19 703.07,-276.16 692.5,-275.44 694.36,-282.19"/>
</g>
<!-- hand&#45;&gt;hosp -->
<g id="edge22" class="edge">
<title>hand&#45;&gt;hosp</title>
<path fill="none" stroke="#40d040" d="M569.4,-529.49C587.64,-465.67 648.29,-255.41 658.72,-244.7 663.23,-240.06 668.57,-236.22 674.31,-233.04"/>
<polygon fill="#40d040" stroke="#40d040" points="676.11,-236.06 683.6,-228.57 673.07,-229.76 676.11,-236.06"/>
</g>
<!-- e1 -->
<g id="node21" class="node">
<title>e1</title>
<g id="a_node21"><a xlink:href="units.html#e1" xlink:title="Minigunner" target="_top">
<polygon fill="none" stroke="#40d040" points="780.72,-565.7 696.72,-565.7 696.72,-529.7 780.72,-529.7 780.72,-565.7"/>
<text text-anchor="middle" x="738.72" y="-544" font-family="Helvetica,sans-Serif" font-size="14.00" fill="#40d040">Minigunner</text>
</a>
</g>
</g>
<!-- hand&#45;&gt;e1 -->
<g id="edge38" class="edge">
<title>hand&#45;&gt;e1</title>
<path fill="none" stroke="#40d040" stroke-dasharray="1,5" d="M609.35,-547.7C632.98,-547.7 662.02,-547.7 686.49,-547.7"/>
<polygon fill="#40d040" stroke="#40d040" points="686.67,-551.2 696.67,-547.7 686.67,-544.2 686.67,-551.2"/>
</g>
<!-- e3 -->
<g id="node22" class="node">
<title>e3</title>
<g id="a_node22"><a xlink:href="units.html#e3" xlink:title="Rocket Soldier" target="_top">
<polygon fill="none" stroke="#40d040" points="790.72,-765.7 686.72,-765.7 686.72,-729.7 790.72,-729.7 790.72,-765.7"/>
<text text-anchor="middle" x="738.72" y="-744" font-family="Helvetica,sans-Serif" font-size="14.00" fill="#40d040">Rocket Soldier</text>
</a>
</g>
</g>
<!-- hand&#45;&gt;e3 -->
<g id="edge39" class="edge">
<title>hand&#45;&gt;e3</title>
<path fill="none" stroke="#40d040" stroke-dasharray="1,5" d="M607.39,-565.8C613.16,-569.7 618.53,-574.3 622.72,-579.7 662.38,-630.79 614.83,-673.19 658.72,-720.7 663.86,-726.26 670.19,-730.68 677.01,-734.19"/>
<polygon fill="#40d040" stroke="#40d040" points="676,-737.57 686.56,-738.43 678.84,-731.17 676,-737.57"/>
</g>
<!-- e4 -->
<g id="node23" class="node">
<title>e4</title>
<g id="a_node23"><a xlink:href="units.html#e4" xlink:title="Flamethrower" target="_top">
<polygon fill="none" stroke="#40d040" points="788.72,-711.7 688.72,-711.7 688.72,-675.7 788.72,-675.7 788.72,-711.7"/>
<text text-anchor="middle" x="738.72" y="-690" font-family="Helvetica,sans-Serif" font-size="14.00" fill="#40d040">Flamethrower</text>
</a>
</g>
</g>
<!-- hand&#45;&gt;e4 -->
<g id="edge40" class="edge">
<title>hand&#45;&gt;e4</title>
<path fill="none" stroke="#40d040" stroke-dasharray="1,5" d="M605.83,-565.77C612.02,-569.73 617.92,-574.36 622.72,-579.7 650.66,-610.85 628.21,-638.06 658.72,-666.7 664.59,-672.21 671.63,-676.6 679.06,-680.1"/>
<polygon fill="#40d040" stroke="#40d040" points="678.04,-683.46 688.62,-684.07 680.72,-677 678.04,-683.46"/>
</g>
<!-- e5 -->
<g id="node24" class="node">
<title>e5</title>
<g id="a_node24"><a xlink:href="units.html#e5" xlink:title="Chem Trooper" target="_top">
<polygon fill="none" stroke="#40d040" points="1181.22,-549.7 1077.22,-549.7 1077.22,-513.7 1181.22,-513.7 1181.22,-549.7"/>
<text text-anchor="middle" x="1129.22" y="-528" font-family="Helvetica,sans-Serif" font-size="14.00" fill="#40d040">Chem Trooper</text>
</a>
</g>
</g>
<!-- hand&#45;&gt;e5 -->
<g id="edge42" class="edge">
<title>hand&#45;&gt;e5</title>
<path fill="none" stroke="#40d040" stroke-dasharray="1,5" d="M609.33,-532.05C624.79,-527.43 642.33,-522.99 658.72,-520.7 826.41,-497.21 870.71,-510.24 1039.72,-520.7 1048.47,-521.24 1057.69,-522.08 1066.74,-523.06"/>
<polygon fill="#40d040" stroke="#40d040" points="1066.51,-526.56 1076.84,-524.22 1067.3,-519.61 1066.51,-526.56"/>
</g>
<!-- e7 -->
<g id="node25" class="node">
<title>e7</title>
<g id="a_node25"><a xlink:href="units.html#e7" xlink:title="Engineer" target="_top">
<polygon fill="none" stroke="#40d040" points="774.22,-657.7 703.22,-657.7 703.22,-621.7 774.22,-621.7 774.22,-657.7"/>
<text text-anchor="middle" x="738.72" y="-636" font-family="Helvetica,sans-Serif" font-size="14.00" fill="#40d040">Engineer</text>
</a>
</g>
</g>
<!-- hand&#45;&gt;e7 -->
<g id="edge43" class="edge">
<title>hand&#45;&gt;e7</title>
<path fill="none" stroke="#40d040" stroke-dasharray="1,5" d="M599.4,-565.75C607.22,-570.09 615.36,-574.87 622.72,-579.7 639.66,-590.82 641.16,-597.58 658.72,-607.7 669.53,-613.94 681.8,-619.54 693.39,-624.24"/>
<polygon fill="#40d040" stroke="#40d040" points="692.33,-627.59 702.92,-627.98 694.89,-621.07 692.33,-627.59"/>
</g>
<!-- mbo -->
<g id="node26" class="node">
<title>mbo</title>
<g id="a_node26"><a xlink:href="units.html#mbo" xlink:title="Commando" target="_top">
<polygon fill="none" stroke="#40d040" points="1173.22,-454.7 1085.22,-454.7 1085.22,-418.7 1173.22,-418.7 1173.22,-454.7"/>
<text text-anchor="middle" x="1129.22" y="-433" font-family="Helvetica,sans-Serif" font-size="14.00" fill="#40d040">Commando</text>
</a>
</g>
</g>
<!-- hand&#45;&gt;mbo -->
<g id="edge45" class="edge">
<title>hand&#45;&gt;mbo</title>
<path fill="none" stroke="#40d040" stroke-dasharray="1,5" d="M596.04,-529.55C613.92,-520.12 636.96,-509.24 658.72,-502.7 805.44,-458.59 987,-443.73 1075.18,-438.91"/>
<polygon fill="#40d040" stroke="#40d040" points="1075.4,-442.4 1085.2,-438.38 1075.03,-435.41 1075.4,-442.4"/>
</g>
<!-- hand&#45;&gt;apc -->
<g id="edge51" class="edge">
<title>hand&#45;&gt;apc</title>
<path fill="none" stroke="#40d040" d="M609.33,-563.35C624.79,-567.97 642.33,-572.4 658.72,-574.7 729.14,-584.56 747.99,-582.11 818.72,-574.7 849.97,-571.43 884.83,-563.76 910.19,-557.43"/>
<polygon fill="#40d040" stroke="#40d040" points="911.27,-560.77 920.1,-554.9 909.55,-553.98 911.27,-560.77"/>
</g>
<!-- tmpl&#45;&gt;e5 -->
<g id="edge41" class="edge">
<title>tmpl&#45;&gt;e5</title>
<path fill="none" stroke="#40d040" d="M1003.87,-586.88C1015.82,-583.25 1028.29,-579.13 1039.72,-574.7 1054.87,-568.83 1070.99,-561.38 1085.26,-554.34"/>
<polygon fill="#40d040" stroke="#40d040" points="1086.97,-557.4 1094.34,-549.79 1083.83,-551.14 1086.97,-557.4"/>
</g>
<!-- tmpl&#45;&gt;mbo -->
<g id="edge44" class="edge">
<title>tmpl&#45;&gt;mbo</title>
<path fill="none" stroke="#40d040" d="M1004.02,-592.94C1016.75,-588.95 1029.51,-583.15 1039.72,-574.7 1066.67,-552.39 1056.95,-534.22 1075.72,-504.7 1084.88,-490.28 1096.36,-475.15 1106.24,-462.83"/>
<polygon fill="#40d040" stroke="#40d040" points="1109.18,-464.76 1112.78,-454.79 1103.76,-460.34 1109.18,-464.76"/>
</g>
<!-- tmpl&#45;&gt;msam -->
<g id="edge53" class="edge">
<title>tmpl&#45;&gt;msam</title>
<path fill="none" stroke="#40d040" d="M1004.18,-606.36C1031,-608.6 1062.55,-611.23 1087.12,-613.27"/>
<polygon fill="#40d040" stroke="#40d040" points="1086.93,-616.77 1097.19,-614.11 1087.51,-609.79 1086.93,-616.77"/>
</g>
<!-- tmpl&#45;&gt;mcv -->
<g id="edge62" class="edge">
<title>tmpl&#45;&gt;mcv</title>
<path fill="none" stroke="#40d040" d="M990.87,-619.71C1021.88,-632.8 1063.38,-650.32 1092.61,-662.67"/>
<polygon fill="#40d040" stroke="#40d040" points="1091.45,-665.98 1102.03,-666.64 1094.17,-659.53 1091.45,-665.98"/>
</g>
<!-- mcv&#45;&gt;fact -->
<g id="edge7" class="edge">
<title>mcv:e&#45;&gt;fact:w</title>
<path fill="none" stroke="#40d040" stroke-dasharray="1,5" d="M1157.22,-677.7C1165.23,-677.7 1162.04,-690.19 1156.22,-695.7 1138.78,-712.19 1126.01,-698.86 1102.22,-695.7 989.25,-680.68 937.58,-706.94 854.72,-628.7 817.93,-593.96 848.8,-561.38 818.72,-520.7 766.8,-450.49 725.15,-463.36 658.72,-406.7 475.55,-250.48 500.77,-113.7 278.72,-20.7 232.39,-1.3 202.29,13.72 165.72,-20.7 69.89,-110.87 225.54,-521.53 129.72,-611.7 89.42,-649.62 45.41,-649.73 5.22,-611.7 2.85,-609.46 0.92,-606.07 0,-602.84"/>
<polygon fill="#40d040" stroke="#40d040" points="3.2,-604.25 4.22,-593.7 -3.15,-601.31 3.2,-604.25"/>
</g>
</g>
</svg>
