<?xml version="1.0" encoding="UTF-8" standalone="no"?>
<!DOCTYPE svg PUBLIC "-//W3C//DTD SVG 1.1//EN"
 "http://www.w3.org/Graphics/SVG/1.1/DTD/svg11.dtd">
<!-- Generated by graphviz version 2.44.1 (0)
 -->
<!-- Pages: 1 -->
<svg width="1223pt" height="1128pt"
 viewBox="0.00 0.00 1222.72 1127.84" xmlns="http://www.w3.org/2000/svg" xmlns:xlink="http://www.w3.org/1999/xlink">
<g id="graph0" class="graph" transform="scale(1 1) rotate(0) translate(4 1123.84)">
<polygon fill="#101410" stroke="transparent" points="-4,4 -4,-1123.84 1218.72,-1123.84 1218.72,4 -4,4"/>
<!-- weap -->
<g id="node1" class="node">
<title>weap</title>
<g id="a_node1"><a xlink:href="structures.html#weap" xlink:title="Weapons Factory" target="_top">
<polygon fill="none" stroke="#40d040" points="799.72,-977.84 677.72,-977.84 677.72,-941.84 799.72,-941.84 799.72,-977.84"/>
<text text-anchor="middle" x="738.72" y="-956.14" font-family="Helvetica,sans-Serif" font-size="14.00" fill="#40d040">Weapons Factory</text>
</a>
</g>
</g>
<!-- htnk -->
<g id="node25" class="node">
<title>htnk</title>
<g id="a_node25"><a xlink:href="units.html#htnk" xlink:title="Mammoth Tank" target="_top">
<polygon fill="none" stroke="#40d040" points="1028.22,-827.84 917.22,-827.84 917.22,-791.84 1028.22,-791.84 1028.22,-827.84"/>
<text text-anchor="middle" x="972.72" y="-806.14" font-family="Helvetica,sans-Serif" font-size="14.00" fill="#40d040">Mammoth Tank</text>
</a>
</g>
</g>
<!-- weap&#45;&gt;htnk -->
<g id="edge42" class="edge">
<title>weap&#45;&gt;htnk</title>
<path fill="none" stroke="#40d040" stroke-dasharray="1,5" d="M799.96,-945.73C806.84,-942.32 813.31,-938.09 818.72,-932.84 851.41,-901.1 820.44,-866.87 854.72,-836.84 869.21,-824.15 888.48,-817.1 907.19,-813.28"/>
<polygon fill="#40d040" stroke="#40d040" points="907.95,-816.69 917.19,-811.51 906.74,-809.8 907.95,-816.69"/>
</g>
<!-- mtnk -->
<g id="node26" class="node">
<title>mtnk</title>
<g id="a_node26"><a xlink:href="units.html#mtnk" xlink:title="M1 Abrams Medium Tank" target="_top">
<polygon fill="none" stroke="#40d040" points="1059.22,-973.84 886.22,-973.84 886.22,-937.84 1059.22,-937.84 1059.22,-973.84"/>
<text text-anchor="middle" x="972.72" y="-952.14" font-family="Helvetica,sans-Serif" font-size="14.00" fill="#40d040">M1 Abrams Medium Tank</text>
</a>
</g>
</g>
<!-- weap&#45;&gt;mtnk -->
<g id="edge43" class="edge">
<title>weap&#45;&gt;mtnk</title>
<path fill="none" stroke="#40d040" stroke-dasharray="1,5" d="M799.76,-958.8C823,-958.4 850.16,-957.93 875.95,-957.49"/>
<polygon fill="#40d040" stroke="#40d040" points="876.2,-960.99 886.14,-957.31 876.08,-953.99 876.2,-960.99"/>
</g>
<!-- apc -->
<g id="node27" class="node">
<title>apc</title>
<g id="a_node27"><a xlink:href="units.html#apc" xlink:title="APC" target="_top">
<polygon fill="none" stroke="#40d040" points="999.72,-773.84 945.72,-773.84 945.72,-737.84 999.72,-737.84 999.72,-773.84"/>
<text text-anchor="middle" x="972.72" y="-752.14" font-family="Helvetica,sans-Serif" font-size="14.00" fill="#40d040">APC</text>
</a>
</g>
</g>
<!-- weap&#45;&gt;apc -->
<g id="edge45" class="edge">
<title>weap&#45;&gt;apc</title>
<path fill="none" stroke="#40d040" stroke-dasharray="1,5" d="M799.81,-946.75C806.89,-943.17 813.45,-938.63 818.72,-932.84 864.87,-882.14 806.03,-831.11 854.72,-782.84 875.8,-761.94 909.62,-755.94 935.49,-754.73"/>
<polygon fill="#40d040" stroke="#40d040" points="935.77,-758.22 945.68,-754.47 935.59,-751.22 935.77,-758.22"/>
</g>
<!-- msam -->
<g id="node28" class="node">
<title>msam</title>
<g id="a_node28"><a xlink:href="units.html#msam" xlink:title="MLRS *" target="_top">
<polygon fill="none" stroke="#40d040" points="1202.72,-780.84 1138.72,-780.84 1138.72,-744.84 1202.72,-744.84 1202.72,-780.84"/>
<text text-anchor="middle" x="1170.72" y="-759.14" font-family="Helvetica,sans-Serif" font-size="14.00" fill="#40d040">MLRS *</text>
</a>
</g>
</g>
<!-- weap&#45;&gt;msam -->
<g id="edge47" class="edge">
<title>weap&#45;&gt;msam</title>
<path fill="none" stroke="#40d040" stroke-dasharray="1,5" d="M800.01,-942.33C817.56,-937.57 836.83,-932.68 854.72,-928.84 958.59,-906.54 1002.36,-949.84 1090.72,-890.84 1126.62,-866.87 1149.1,-820.48 1160.52,-790.62"/>
<polygon fill="#40d040" stroke="#40d040" points="1163.82,-791.78 1163.97,-781.19 1157.24,-789.38 1163.82,-791.78"/>
</g>
<!-- jeep -->
<g id="node29" class="node">
<title>jeep</title>
<g id="a_node29"><a xlink:href="units.html#jeep" xlink:title="Humm&#45;vee" target="_top">
<polygon fill="none" stroke="#40d040" points="1014.72,-1119.84 930.72,-1119.84 930.72,-1083.84 1014.72,-1083.84 1014.72,-1119.84"/>
<text text-anchor="middle" x="972.72" y="-1098.14" font-family="Helvetica,sans-Serif" font-size="14.00" fill="#40d040">Humm&#45;vee</text>
</a>
</g>
</g>
<!-- weap&#45;&gt;jeep -->
<g id="edge48" class="edge">
<title>weap&#45;&gt;jeep</title>
<path fill="none" stroke="#40d040" stroke-dasharray="1,5" d="M752.67,-978.14C771.9,-1003.88 810.51,-1050.34 854.72,-1074.84 874.79,-1085.96 899.23,-1092.51 920.57,-1096.36"/>
<polygon fill="#40d040" stroke="#40d040" points="920.01,-1099.82 930.45,-1098 921.15,-1092.91 920.01,-1099.82"/>
</g>
<!-- harv -->
<g id="node30" class="node">
<title>harv</title>
<g id="a_node30"><a xlink:href="units.html#harv" xlink:title="Harvester" target="_top">
<polygon fill="none" stroke="#40d040" points="1010.22,-881.84 935.22,-881.84 935.22,-845.84 1010.22,-845.84 1010.22,-881.84"/>
<text text-anchor="middle" x="972.72" y="-860.14" font-family="Helvetica,sans-Serif" font-size="14.00" fill="#40d040">Harvester</text>
</a>
</g>
</g>
<!-- weap&#45;&gt;harv -->
<g id="edge50" class="edge">
<title>weap&#45;&gt;harv</title>
<path fill="none" stroke="#40d040" stroke-dasharray="1,5" d="M799.78,-942.7C806.39,-939.83 812.84,-936.56 818.72,-932.84 838.11,-920.57 834.96,-907.5 854.72,-895.84 876.11,-883.22 902.62,-875.43 925,-870.71"/>
<polygon fill="#40d040" stroke="#40d040" points="925.82,-874.12 934.95,-868.75 924.47,-867.25 925.82,-874.12"/>
</g>
<!-- mhq -->
<g id="node31" class="node">
<title>mhq</title>
<g id="a_node31"><a xlink:href="units.html#mhq" xlink:title="Mobile Headquarters" target="_top">
<polygon fill="none" stroke="#40d040" points="1044.22,-1065.84 901.22,-1065.84 901.22,-1029.84 1044.22,-1029.84 1044.22,-1065.84"/>
<text text-anchor="middle" x="972.72" y="-1044.14" font-family="Helvetica,sans-Serif" font-size="14.00" fill="#40d040">Mobile Headquarters</text>
</a>
</g>
</g>
<!-- weap&#45;&gt;mhq -->
<g id="edge51" class="edge">
<title>weap&#45;&gt;mhq</title>
<path fill="none" stroke="#40d040" stroke-dasharray="1,5" d="M772.71,-977.94C795.31,-989.84 826.25,-1005.12 854.72,-1015.84 866.38,-1020.23 878.9,-1024.3 891.27,-1027.97"/>
<polygon fill="#40d040" stroke="#40d040" points="890.55,-1031.4 901.13,-1030.81 892.49,-1024.68 890.55,-1031.4"/>
</g>
<!-- mcv -->
<g id="node32" class="node">
<title>mcv</title>
<g id="a_node32"><a xlink:href="units.html#mcv" xlink:title="MCV" target="_top">
<polygon fill="none" stroke="#40d040" points="1197.72,-957.84 1143.72,-957.84 1143.72,-921.84 1197.72,-921.84 1197.72,-957.84"/>
<text text-anchor="middle" x="1170.72" y="-936.14" font-family="Helvetica,sans-Serif" font-size="14.00" fill="#40d040">MCV</text>
</a>
</g>
</g>
<!-- weap&#45;&gt;mcv -->
<g id="edge53" class="edge">
<title>weap&#45;&gt;mcv</title>
<path fill="none" stroke="#40d040" stroke-dasharray="1,5" d="M799.75,-974.96C870.48,-990.23 991,-1008.22 1090.72,-982.84 1106.33,-978.86 1122.19,-971.11 1135.57,-963.26"/>
<polygon fill="#40d040" stroke="#40d040" points="1137.69,-966.07 1144.39,-957.86 1134.04,-960.1 1137.69,-966.07"/>
</g>
<!-- gtwr -->
<g id="node2" class="node">
<title>gtwr</title>
<g id="a_node2"><a xlink:href="structures.html#gtwr" xlink:title="Guard tower" target="_top">
<polygon fill="none" stroke="#40d040" points="784.72,-447.84 692.72,-447.84 692.72,-411.84 784.72,-411.84 784.72,-447.84"/>
<text text-anchor="middle" x="738.72" y="-426.14" font-family="Helvetica,sans-Serif" font-size="14.00" fill="#40d040">Guard tower</text>
</a>
</g>
</g>
<!-- atwr -->
<g id="node3" class="node">
<title>atwr</title>
<g id="a_node3"><a xlink:href="structures.html#atwr" xlink:title="Advanced Guard Tower" target="_top">
<polygon fill="none" stroke="#40d040" points="1051.72,-396.84 893.72,-396.84 893.72,-360.84 1051.72,-360.84 1051.72,-396.84"/>
<text text-anchor="middle" x="972.72" y="-375.14" font-family="Helvetica,sans-Serif" font-size="14.00" fill="#40d040">Advanced Guard Tower</text>
</a>
</g>
</g>
<!-- hq -->
<g id="node4" class="node">
<title>hq</title>
<g id="a_node4"><a xlink:href="structures.html#hq" xlink:title="Communications center" target="_top">
<polygon fill="none" stroke="#40d040" points="818.72,-793.84 658.72,-793.84 658.72,-757.84 818.72,-757.84 818.72,-793.84"/>
<text text-anchor="middle" x="738.72" y="-772.14" font-family="Helvetica,sans-Serif" font-size="14.00" fill="#40d040">Communications center</text>
</a>
</g>
</g>
<!-- hq&#45;&gt;atwr -->
<g id="edge5" class="edge">
<title>hq&#45;&gt;atwr</title>
<path fill="none" stroke="#40d040" d="M806.8,-757.75C811.09,-755.17 815.13,-752.21 818.72,-748.84 832.17,-736.21 928.59,-489.91 961.07,-406.32"/>
<polygon fill="#40d040" stroke="#40d040" points="964.35,-407.55 964.7,-396.96 957.82,-405.01 964.35,-407.55"/>
</g>
<!-- eye -->
<g id="node14" class="node">
<title>eye</title>
<g id="a_node14"><a xlink:href="structures.html#eye" xlink:title="Advanced Communications Center *" target="_top">
<polygon fill="none" stroke="#40d040" points="1090.72,-719.84 854.72,-719.84 854.72,-683.84 1090.72,-683.84 1090.72,-719.84"/>
<text text-anchor="middle" x="972.72" y="-698.14" font-family="Helvetica,sans-Serif" font-size="14.00" fill="#40d040">Advanced Communications Center *</text>
</a>
</g>
</g>
<!-- hq&#45;&gt;eye -->
<g id="edge28" class="edge">
<title>hq&#45;&gt;eye</title>
<path fill="none" stroke="#40d040" d="M796.72,-757.72C804.2,-754.94 811.7,-751.96 818.72,-748.84 835.44,-741.41 837.63,-735.41 854.72,-728.84 860.26,-726.71 866.03,-724.71 871.89,-722.86"/>
<polygon fill="#40d040" stroke="#40d040" points="873.26,-726.1 881.83,-719.86 871.24,-719.4 873.26,-726.1"/>
</g>
<!-- fact -->
<g id="node5" class="node">
<title>fact</title>
<g id="a_node5"><a xlink:href="structures.html#fact" xlink:title="Construction Yard" target="_top">
<polygon fill="none" stroke="#40d040" points="129.72,-547.84 4.72,-547.84 4.72,-511.84 129.72,-511.84 129.72,-547.84"/>
<text text-anchor="middle" x="67.22" y="-526.14" font-family="Helvetica,sans-Serif" font-size="14.00" fill="#40d040">Construction Yard</text>
</a>
</g>
</g>
<!-- fact&#45;&gt;weap -->
<g id="edge2" class="edge">
<title>fact&#45;&gt;weap</title>
<path fill="none" stroke="#40d040" stroke-dasharray="1,5" d="M69.98,-547.89C75.4,-593.54 95.96,-714.61 165.72,-779.84 308.31,-913.19 548.95,-947.76 667.46,-956.72"/>
<polygon fill="#40d040" stroke="#40d040" points="667.28,-960.21 677.51,-957.44 667.78,-953.23 667.28,-960.21"/>
</g>
<!-- fact&#45;&gt;gtwr -->
<g id="edge4" class="edge">
<title>fact&#45;&gt;gtwr</title>
<path fill="none" stroke="#40d040" stroke-dasharray="1,5" d="M130,-520.61C259.72,-501.23 558.67,-456.58 682.47,-438.09"/>
<polygon fill="#40d040" stroke="#40d040" points="683.12,-441.53 692.49,-436.59 682.08,-434.61 683.12,-441.53"/>
</g>
<!-- fact&#45;&gt;atwr -->
<g id="edge6" class="edge">
<title>fact&#45;&gt;atwr</title>
<path fill="none" stroke="#40d040" stroke-dasharray="1,5" d="M70.47,-511.73C76.79,-469.43 98.83,-364.09 165.72,-315.84 247.1,-257.14 289.87,-291.84 390.22,-291.84 390.22,-291.84 390.22,-291.84 564.22,-291.84 677.83,-291.84 708.42,-288.58 818.72,-315.84 856.46,-325.17 897.06,-342.24 926.95,-356.27"/>
<polygon fill="#40d040" stroke="#40d040" points="925.73,-359.56 936.26,-360.7 928.74,-353.24 925.73,-359.56"/>
</g>
<!-- fact&#45;&gt;hq -->
<g id="edge8" class="edge">
<title>fact&#45;&gt;hq</title>
<path fill="none" stroke="#40d040" stroke-dasharray="1,5" d="M129.9,-537.56C233.94,-550.74 436.12,-577.11 467.72,-586.84 541.04,-609.42 570.1,-607 622.72,-662.84 651.13,-693 628.45,-720.54 658.72,-748.84 659.84,-749.89 661.01,-750.9 662.21,-751.87"/>
<polygon fill="#40d040" stroke="#40d040" points="660.44,-754.9 670.65,-757.73 664.43,-749.15 660.44,-754.9"/>
</g>
<!-- proc -->
<g id="node6" class="node">
<title>proc</title>
<g id="a_node6"><a xlink:href="structures.html#proc" xlink:title="Tiberium refinery" target="_top">
<polygon fill="none" stroke="#40d040" points="622.72,-791.84 503.72,-791.84 503.72,-755.84 622.72,-755.84 622.72,-791.84"/>
<text text-anchor="middle" x="563.22" y="-770.14" font-family="Helvetica,sans-Serif" font-size="14.00" fill="#40d040">Tiberium refinery</text>
</a>
</g>
</g>
<!-- fact&#45;&gt;proc -->
<g id="edge12" class="edge">
<title>fact&#45;&gt;proc</title>
<path fill="none" stroke="#40d040" stroke-dasharray="1,5" d="M72.34,-547.94C81.8,-585 108.77,-669.42 165.72,-709.84 263.39,-779.16 408.5,-784.27 493.41,-780.13"/>
<polygon fill="#40d040" stroke="#40d040" points="493.66,-783.62 503.46,-779.58 493.28,-776.63 493.66,-783.62"/>
</g>
<!-- silo -->
<g id="node7" class="node">
<title>silo</title>
<g id="a_node7"><a xlink:href="structures.html#silo" xlink:title="Tiberium silo" target="_top">
<polygon fill="none" stroke="#40d040" points="785.72,-923.84 691.72,-923.84 691.72,-887.84 785.72,-887.84 785.72,-923.84"/>
<text text-anchor="middle" x="738.72" y="-902.14" font-family="Helvetica,sans-Serif" font-size="14.00" fill="#40d040">Tiberium silo</text>
</a>
</g>
</g>
<!-- fact&#45;&gt;silo -->
<g id="edge14" class="edge">
<title>fact&#45;&gt;silo</title>
<path fill="none" stroke="#40d040" stroke-dasharray="1,5" d="M70.92,-547.98C78.17,-589.96 101.96,-694.36 165.72,-748.84 217.85,-793.38 247.8,-773.91 314.72,-788.84 450.44,-819.12 492.71,-794.51 622.72,-843.84 640.25,-850.49 642.34,-856.71 658.72,-865.84 669.21,-871.69 680.65,-877.69 691.49,-883.21"/>
<polygon fill="#40d040" stroke="#40d040" points="689.92,-886.34 700.42,-887.72 693.07,-880.09 689.92,-886.34"/>
</g>
<!-- hpad -->
<g id="node8" class="node">
<title>hpad</title>
<g id="a_node8"><a xlink:href="structures.html#hpad" xlink:title="Orca/Apache Helipad" target="_top">
<polygon fill="none" stroke="#40d040" points="811.72,-263.84 665.72,-263.84 665.72,-227.84 811.72,-227.84 811.72,-263.84"/>
<text text-anchor="middle" x="738.72" y="-242.14" font-family="Helvetica,sans-Serif" font-size="14.00" fill="#40d040">Orca/Apache Helipad</text>
</a>
</g>
</g>
<!-- fact&#45;&gt;hpad -->
<g id="edge16" class="edge">
<title>fact&#45;&gt;hpad</title>
<path fill="none" stroke="#40d040" stroke-dasharray="1,5" d="M68.96,-511.61C71.98,-463.84 87.37,-334.81 165.72,-277.84 241.54,-222.7 515.92,-231.42 655.27,-239.85"/>
<polygon fill="#40d040" stroke="#40d040" points="655.28,-243.35 665.47,-240.48 655.71,-236.37 655.28,-243.35"/>
</g>
<!-- nuke -->
<g id="node9" class="node">
<title>nuke</title>
<g id="a_node9"><a xlink:href="structures.html#nuke" xlink:title="Power plant" target="_top">
<polygon fill="none" stroke="#40d040" points="266.22,-669.84 178.22,-669.84 178.22,-633.84 266.22,-633.84 266.22,-669.84"/>
<text text-anchor="middle" x="222.22" y="-648.14" font-family="Helvetica,sans-Serif" font-size="14.00" fill="#40d040">Power plant</text>
</a>
</g>
</g>
<!-- fact&#45;&gt;nuke -->
<g id="edge17" class="edge">
<title>fact&#45;&gt;nuke</title>
<path fill="none" stroke="#40d040" stroke-dasharray="1,5" d="M85.5,-548.03C104.21,-567.19 135.47,-597.59 165.72,-619.84 169.65,-622.73 173.87,-625.58 178.16,-628.3"/>
<polygon fill="#40d040" stroke="#40d040" points="176.64,-631.48 187,-633.71 180.3,-625.51 176.64,-631.48"/>
</g>
<!-- nuk2 -->
<g id="node10" class="node">
<title>nuk2</title>
<g id="a_node10"><a xlink:href="structures.html#nuk2" xlink:title="Advanced Power Plant" target="_top">
<polygon fill="none" stroke="#40d040" points="467.72,-631.84 314.72,-631.84 314.72,-595.84 467.72,-595.84 467.72,-631.84"/>
<text text-anchor="middle" x="391.22" y="-610.14" font-family="Helvetica,sans-Serif" font-size="14.00" fill="#40d040">Advanced Power Plant</text>
</a>
</g>
</g>
<!-- fact&#45;&gt;nuk2 -->
<g id="edge19" class="edge">
<title>fact&#45;&gt;nuk2</title>
<path fill="none" stroke="#40d040" stroke-dasharray="1,5" d="M96.06,-548.06C114.95,-559.57 140.92,-573.74 165.72,-581.84 210.32,-596.41 262.06,-604.35 304.62,-608.68"/>
<polygon fill="#40d040" stroke="#40d040" points="304.38,-612.17 314.67,-609.65 305.05,-605.2 304.38,-612.17"/>
</g>
<!-- hosp -->
<g id="node11" class="node">
<title>hosp</title>
<g id="a_node11"><a xlink:href="structures.html#hosp" xlink:title="Civilian hospital" target="_top">
<polygon fill="none" stroke="#40d040" points="793.72,-393.84 683.72,-393.84 683.72,-357.84 793.72,-357.84 793.72,-393.84"/>
<text text-anchor="middle" x="738.72" y="-372.14" font-family="Helvetica,sans-Serif" font-size="14.00" fill="#40d040">Civilian hospital</text>
</a>
</g>
</g>
<!-- fact&#45;&gt;hosp -->
<g id="edge21" class="edge">
<title>fact&#45;&gt;hosp</title>
<path fill="none" stroke="#40d040" stroke-dasharray="1,5" d="M114.41,-511.77C130.49,-505.87 148.75,-499.62 165.72,-494.84 347.3,-443.63 566.97,-404.01 673.53,-386.18"/>
<polygon fill="#40d040" stroke="#40d040" points="674.2,-389.62 683.49,-384.52 673.05,-382.71 674.2,-389.62"/>
</g>
<!-- pyle -->
<g id="node12" class="node">
<title>pyle</title>
<g id="a_node12"><a xlink:href="structures.html#pyle" xlink:title="Infantry barracks" target="_top">
<polygon fill="none" stroke="#40d040" points="621.72,-539.84 504.72,-539.84 504.72,-503.84 621.72,-503.84 621.72,-539.84"/>
<text text-anchor="middle" x="563.22" y="-518.14" font-family="Helvetica,sans-Serif" font-size="14.00" fill="#40d040">Infantry barracks</text>
</a>
</g>
</g>
<!-- fact&#45;&gt;pyle -->
<g id="edge24" class="edge">
<title>fact&#45;&gt;pyle</title>
<path fill="none" stroke="#40d040" stroke-dasharray="1,5" d="M129.78,-528.84C222.62,-527.34 397.8,-524.5 494.26,-522.94"/>
<polygon fill="#40d040" stroke="#40d040" points="494.54,-526.44 504.48,-522.77 494.43,-519.44 494.54,-526.44"/>
</g>
<!-- fix -->
<g id="node13" class="node">
<title>fix</title>
<g id="a_node13"><a xlink:href="structures.html#fix" xlink:title="Repair facility" target="_top">
<polygon fill="none" stroke="#40d040" points="612.22,-707.84 514.22,-707.84 514.22,-671.84 612.22,-671.84 612.22,-707.84"/>
<text text-anchor="middle" x="563.22" y="-686.14" font-family="Helvetica,sans-Serif" font-size="14.00" fill="#40d040">Repair facility</text>
</a>
</g>
</g>
<!-- fact&#45;&gt;fix -->
<g id="edge27" class="edge">
<title>fact&#45;&gt;fix</title>
<path fill="none" stroke="#40d040" stroke-dasharray="1,5" d="M73.86,-547.89C85.21,-580.75 114.22,-649.64 165.72,-678.84 272.43,-739.34 422.61,-720.97 504.1,-704.2"/>
<polygon fill="#40d040" stroke="#40d040" points="505.11,-707.56 514.17,-702.06 503.66,-700.71 505.11,-707.56"/>
</g>
<!-- fact&#45;&gt;eye -->
<g id="edge29" class="edge">
<title>fact&#45;&gt;eye</title>
<path fill="none" stroke="#40d040" stroke-dasharray="1,5" d="M83.19,-511.74C125.71,-462.51 253.01,-329.84 390.22,-329.84 390.22,-329.84 390.22,-329.84 564.22,-329.84 620.93,-329.84 772.5,-315.97 818.72,-348.84 847.3,-369.17 932,-593.83 961.47,-673.79"/>
<polygon fill="#40d040" stroke="#40d040" points="958.36,-675.47 965.1,-683.65 964.93,-673.06 958.36,-675.47"/>
</g>
<!-- sbag -->
<g id="node15" class="node">
<title>sbag</title>
<g id="a_node15"><a xlink:href="structures.html#sbag" xlink:title="Sandbag wall" target="_top">
<polygon fill="none" stroke="#40d040" points="271.22,-225.84 173.22,-225.84 173.22,-189.84 271.22,-189.84 271.22,-225.84"/>
<text text-anchor="middle" x="222.22" y="-204.14" font-family="Helvetica,sans-Serif" font-size="14.00" fill="#40d040">Sandbag wall</text>
</a>
</g>
</g>
<!-- fact&#45;&gt;sbag -->
<g id="edge30" class="edge">
<title>fact&#45;&gt;sbag</title>
<path fill="none" stroke="#40d040" stroke-dasharray="1,5" d="M69.87,-511.74C75.21,-462.68 95.9,-325.12 165.72,-239.84 167.97,-237.09 170.53,-234.52 173.27,-232.15"/>
<polygon fill="#40d040" stroke="#40d040" points="175.6,-234.77 181.43,-225.92 171.36,-229.2 175.6,-234.77"/>
</g>
<!-- cycl -->
<g id="node16" class="node">
<title>cycl</title>
<g id="a_node16"><a xlink:href="structures.html#cycl" xlink:title="Chainlink Fence" target="_top">
<polygon fill="none" stroke="#40d040" points="278.72,-171.84 165.72,-171.84 165.72,-135.84 278.72,-135.84 278.72,-171.84"/>
<text text-anchor="middle" x="222.22" y="-150.14" font-family="Helvetica,sans-Serif" font-size="14.00" fill="#40d040">Chainlink Fence</text>
</a>
</g>
</g>
<!-- fact&#45;&gt;cycl -->
<g id="edge31" class="edge">
<title>fact&#45;&gt;cycl</title>
<path fill="none" stroke="#40d040" stroke-dasharray="1,5" d="M68.3,-511.53C69.49,-455.39 80.29,-283.26 165.72,-180.84 166.33,-180.1 166.97,-179.38 167.64,-178.68"/>
<polygon fill="#40d040" stroke="#40d040" points="170.24,-181.05 175.49,-171.84 165.65,-175.77 170.24,-181.05"/>
</g>
<!-- brik -->
<g id="node17" class="node">
<title>brik</title>
<g id="a_node17"><a xlink:href="structures.html#brik" xlink:title="Concrete wall" target="_top">
<polygon fill="none" stroke="#40d040" points="271.22,-117.84 173.22,-117.84 173.22,-81.84 271.22,-81.84 271.22,-117.84"/>
<text text-anchor="middle" x="222.22" y="-96.14" font-family="Helvetica,sans-Serif" font-size="14.00" fill="#40d040">Concrete wall</text>
</a>
</g>
</g>
<!-- fact&#45;&gt;brik -->
<g id="edge32" class="edge">
<title>fact&#45;&gt;brik</title>
<path fill="none" stroke="#40d040" stroke-dasharray="1,5" d="M70.51,-511.83C79.75,-441.81 116.07,-188.52 165.72,-126.84 166.31,-126.11 166.92,-125.4 167.55,-124.7"/>
<polygon fill="#40d040" stroke="#40d040" points="169.99,-127.22 175.1,-117.94 165.32,-122.01 169.99,-127.22"/>
</g>
<!-- barb -->
<g id="node18" class="node">
<title>barb</title>
<g id="a_node18"><a xlink:href="structures.html#barb" xlink:title="Barbed wire" target="_top">
<polygon fill="none" stroke="#40d040" points="266.72,-975.84 177.72,-975.84 177.72,-939.84 266.72,-939.84 266.72,-975.84"/>
<text text-anchor="middle" x="222.22" y="-954.14" font-family="Helvetica,sans-Serif" font-size="14.00" fill="#40d040">Barbed wire</text>
</a>
</g>
</g>
<!-- fact&#45;&gt;barb -->
<g id="edge33" class="edge">
<title>fact&#45;&gt;barb</title>
<path fill="none" stroke="#40d040" stroke-dasharray="1,5" d="M67.48,-548.17C65.99,-609.58 69.07,-810.89 165.72,-930.84 166.85,-932.24 168.07,-933.58 169.37,-934.85"/>
<polygon fill="#40d040" stroke="#40d040" points="167.53,-937.87 177.5,-941.45 171.94,-932.43 167.53,-937.87"/>
</g>
<!-- wood -->
<g id="node19" class="node">
<title>wood</title>
<g id="a_node19"><a xlink:href="structures.html#wood" xlink:title="Wooden fence" target="_top">
<polygon fill="none" stroke="#40d040" points="274.22,-921.84 170.22,-921.84 170.22,-885.84 274.22,-885.84 274.22,-921.84"/>
<text text-anchor="middle" x="222.22" y="-900.14" font-family="Helvetica,sans-Serif" font-size="14.00" fill="#40d040">Wooden fence</text>
</a>
</g>
</g>
<!-- fact&#45;&gt;wood -->
<g id="edge34" class="edge">
<title>fact&#45;&gt;wood</title>
<path fill="none" stroke="#40d040" stroke-dasharray="1,5" d="M68.75,-547.92C71.24,-602.62 85.37,-768.9 165.72,-871.84 167.8,-874.51 170.18,-877 172.75,-879.32"/>
<polygon fill="#40d040" stroke="#40d040" points="170.91,-882.32 180.94,-885.73 175.22,-876.81 170.91,-882.32"/>
</g>
<!-- proc&#45;&gt;weap -->
<g id="edge1" class="edge">
<title>proc&#45;&gt;weap</title>
<path fill="none" stroke="#40d040" d="M582.07,-791.93C594.65,-805.4 611.23,-824.69 622.72,-843.84 644.66,-880.43 627.73,-903.51 658.72,-932.84 661.8,-935.75 665.2,-938.35 668.82,-940.67"/>
<polygon fill="#40d040" stroke="#40d040" points="667.17,-943.76 677.6,-945.6 670.59,-937.65 667.17,-943.76"/>
</g>
<!-- proc&#45;&gt;hq -->
<g id="edge7" class="edge">
<title>proc&#45;&gt;hq</title>
<path fill="none" stroke="#40d040" d="M622.96,-774.52C631.15,-774.61 639.72,-774.71 648.33,-774.81"/>
<polygon fill="#40d040" stroke="#40d040" points="648.39,-778.31 658.42,-774.93 648.47,-771.31 648.39,-778.31"/>
</g>
<!-- proc&#45;&gt;silo -->
<g id="edge13" class="edge">
<title>proc&#45;&gt;silo</title>
<path fill="none" stroke="#40d040" d="M604.8,-791.94C611.26,-795.93 617.51,-800.56 622.72,-805.84 646.73,-830.18 633.34,-850.92 658.72,-873.84 665.57,-880.03 673.78,-885.1 682.28,-889.24"/>
<polygon fill="#40d040" stroke="#40d040" points="681,-892.5 691.56,-893.36 683.84,-886.1 681,-892.5"/>
</g>
<!-- proc&#45;&gt;harv -->
<g id="edge49" class="edge">
<title>proc&#45;&gt;harv</title>
<path fill="none" stroke="#40d040" d="M599.83,-791.88C607.55,-796.18 615.54,-800.95 622.72,-805.84 639.93,-817.56 639.47,-827.88 658.72,-835.84 747.31,-872.46 861.75,-872 924.82,-868.11"/>
<polygon fill="#40d040" stroke="#40d040" points="925.12,-871.6 934.86,-867.43 924.64,-864.61 925.12,-871.6"/>
</g>
<!-- tran -->
<g id="node33" class="node">
<title>tran</title>
<g id="a_node33"><a xlink:href="units.html#tran" xlink:title="CH&#45;47 Chinook Transport Helicopter" target="_top">
<polygon fill="none" stroke="#40d040" points="1090.22,-290.84 855.22,-290.84 855.22,-254.84 1090.22,-254.84 1090.22,-290.84"/>
<text text-anchor="middle" x="972.72" y="-269.14" font-family="Helvetica,sans-Serif" font-size="14.00" fill="#40d040">CH&#45;47 Chinook Transport Helicopter</text>
</a>
</g>
</g>
<!-- hpad&#45;&gt;tran -->
<g id="edge54" class="edge">
<title>hpad&#45;&gt;tran</title>
<path fill="none" stroke="#40d040" d="M811.85,-254.23C822.45,-255.47 833.62,-256.77 844.93,-258.08"/>
<polygon fill="#40d040" stroke="#40d040" points="844.55,-261.56 854.89,-259.24 845.36,-254.61 844.55,-261.56"/>
</g>
<!-- orca -->
<g id="node34" class="node">
<title>orca</title>
<g id="a_node34"><a xlink:href="units.html#orca" xlink:title="Orca VTOL" target="_top">
<polygon fill="none" stroke="#40d040" points="1015.72,-236.84 929.72,-236.84 929.72,-200.84 1015.72,-200.84 1015.72,-236.84"/>
<text text-anchor="middle" x="972.72" y="-215.14" font-family="Helvetica,sans-Serif" font-size="14.00" fill="#40d040">Orca VTOL</text>
</a>
</g>
</g>
<!-- hpad&#45;&gt;orca -->
<g id="edge55" class="edge">
<title>hpad&#45;&gt;orca</title>
<path fill="none" stroke="#40d040" d="M811.85,-237.44C846.78,-233.38 887.93,-228.59 919.73,-224.89"/>
<polygon fill="#40d040" stroke="#40d040" points="920.18,-228.36 929.71,-223.73 919.37,-221.41 920.18,-228.36"/>
</g>
<!-- nuke&#45;&gt;proc -->
<g id="edge10" class="edge">
<title>nuke&#45;&gt;proc</title>
<path fill="none" stroke="#40d040" d="M266.5,-667.41C326.38,-688.97 434.76,-727.97 502.37,-752.3"/>
<polygon fill="#40d040" stroke="#40d040" points="501.44,-755.69 512.04,-755.78 503.81,-749.1 501.44,-755.69"/>
</g>
<!-- nuke&#45;&gt;nuk2 -->
<g id="edge18" class="edge">
<title>nuke&#45;&gt;nuk2</title>
<path fill="none" stroke="#40d040" d="M266.22,-642.05C278.12,-639.35 291.47,-636.31 304.88,-633.26"/>
<polygon fill="#40d040" stroke="#40d040" points="305.66,-636.67 314.63,-631.04 304.1,-629.84 305.66,-636.67"/>
</g>
<!-- nuke&#45;&gt;pyle -->
<g id="edge22" class="edge">
<title>nuke&#45;&gt;pyle</title>
<path fill="none" stroke="#40d040" d="M244.02,-633.71C261.73,-619.14 288.42,-599.13 314.72,-586.84 372.63,-559.77 443.65,-542.59 494.73,-532.74"/>
<polygon fill="#40d040" stroke="#40d040" points="495.49,-536.16 504.67,-530.87 494.19,-529.28 495.49,-536.16"/>
</g>
<!-- nuke&#45;&gt;fix -->
<g id="edge25" class="edge">
<title>nuke&#45;&gt;fix</title>
<path fill="none" stroke="#40d040" d="M266.5,-656.69C326.85,-663.46 436.47,-675.74 503.96,-683.31"/>
<polygon fill="#40d040" stroke="#40d040" points="503.68,-686.8 514.01,-684.43 504.46,-679.84 503.68,-686.8"/>
</g>
<!-- nuk2&#45;&gt;proc -->
<g id="edge11" class="edge">
<title>nuk2&#45;&gt;proc</title>
<path fill="none" stroke="#40d040" d="M411.84,-631.9C427.12,-645.99 448.83,-666.09 467.72,-683.84 490.94,-705.66 517.16,-730.66 536.08,-748.77"/>
<polygon fill="#40d040" stroke="#40d040" points="533.82,-751.45 543.46,-755.83 538.66,-746.39 533.82,-751.45"/>
</g>
<!-- nuk2&#45;&gt;pyle -->
<g id="edge23" class="edge">
<title>nuk2&#45;&gt;pyle</title>
<path fill="none" stroke="#40d040" d="M425.8,-595.66C452.7,-581.11 490.59,-560.6 519.61,-544.9"/>
<polygon fill="#40d040" stroke="#40d040" points="521.57,-547.82 528.7,-539.98 518.24,-541.66 521.57,-547.82"/>
</g>
<!-- nuk2&#45;&gt;fix -->
<g id="edge26" class="edge">
<title>nuk2&#45;&gt;fix</title>
<path fill="none" stroke="#40d040" d="M435.45,-631.86C446.03,-636.35 457.31,-641.21 467.72,-645.84 483.19,-652.72 499.98,-660.45 515.05,-667.49"/>
<polygon fill="#40d040" stroke="#40d040" points="513.65,-670.69 524.19,-671.77 516.62,-664.35 513.65,-670.69"/>
</g>
<!-- pyle&#45;&gt;gtwr -->
<g id="edge3" class="edge">
<title>pyle&#45;&gt;gtwr</title>
<path fill="none" stroke="#40d040" d="M589.94,-503.71C608.53,-491.07 634.53,-474.29 658.72,-461.84 666.46,-457.85 674.82,-454.01 683.1,-450.45"/>
<polygon fill="#40d040" stroke="#40d040" points="684.51,-453.66 692.38,-446.57 681.8,-447.2 684.51,-453.66"/>
</g>
<!-- pyle&#45;&gt;hpad -->
<g id="edge15" class="edge">
<title>pyle&#45;&gt;hpad</title>
<path fill="none" stroke="#40d040" d="M573,-503.63C588.74,-471.51 623.43,-403.05 658.72,-348.84 676.44,-321.62 699.25,-292.4 715.8,-272.06"/>
<polygon fill="#40d040" stroke="#40d040" points="718.62,-274.14 722.26,-264.18 713.21,-269.7 718.62,-274.14"/>
</g>
<!-- pyle&#45;&gt;hosp -->
<g id="edge20" class="edge">
<title>pyle&#45;&gt;hosp</title>
<path fill="none" stroke="#40d040" d="M574.25,-503.41C589.3,-477.4 620.13,-430.07 658.72,-402.84 663.5,-399.47 668.73,-396.49 674.16,-393.86"/>
<polygon fill="#40d040" stroke="#40d040" points="675.7,-397 683.44,-389.76 672.88,-390.6 675.7,-397"/>
</g>
<!-- e1 -->
<g id="node20" class="node">
<title>e1</title>
<g id="a_node20"><a xlink:href="units.html#e1" xlink:title="Minigunner" target="_top">
<polygon fill="none" stroke="#40d040" points="780.72,-739.84 696.72,-739.84 696.72,-703.84 780.72,-703.84 780.72,-739.84"/>
<text text-anchor="middle" x="738.72" y="-718.14" font-family="Helvetica,sans-Serif" font-size="14.00" fill="#40d040">Minigunner</text>
</a>
</g>
</g>
<!-- pyle&#45;&gt;e1 -->
<g id="edge35" class="edge">
<title>pyle&#45;&gt;e1</title>
<path fill="none" stroke="#40d040" stroke-dasharray="1,5" d="M607.39,-539.94C613.16,-543.84 618.53,-548.44 622.72,-553.84 662.38,-604.93 614.83,-647.33 658.72,-694.84 666.25,-702.99 676.34,-708.68 686.79,-712.65"/>
<polygon fill="#40d040" stroke="#40d040" points="685.83,-716.02 696.42,-715.84 688.02,-709.38 685.83,-716.02"/>
</g>
<!-- e2 -->
<g id="node21" class="node">
<title>e2</title>
<g id="a_node21"><a xlink:href="units.html#e2" xlink:title="Grenadier" target="_top">
<polygon fill="none" stroke="#40d040" points="777.22,-685.84 700.22,-685.84 700.22,-649.84 777.22,-649.84 777.22,-685.84"/>
<text text-anchor="middle" x="738.72" y="-664.14" font-family="Helvetica,sans-Serif" font-size="14.00" fill="#40d040">Grenadier</text>
</a>
</g>
</g>
<!-- pyle&#45;&gt;e2 -->
<g id="edge36" class="edge">
<title>pyle&#45;&gt;e2</title>
<path fill="none" stroke="#40d040" stroke-dasharray="1,5" d="M605.73,-540C611.94,-543.94 617.87,-548.55 622.72,-553.84 649.61,-583.18 630.17,-608.1 658.72,-635.84 667.59,-644.46 679.09,-650.86 690.56,-655.58"/>
<polygon fill="#40d040" stroke="#40d040" points="689.53,-658.93 700.12,-659.15 691.98,-652.37 689.53,-658.93"/>
</g>
<!-- e3 -->
<g id="node22" class="node">
<title>e3</title>
<g id="a_node22"><a xlink:href="units.html#e3" xlink:title="Rocket Soldier" target="_top">
<polygon fill="none" stroke="#40d040" points="790.72,-593.84 686.72,-593.84 686.72,-557.84 790.72,-557.84 790.72,-593.84"/>
<text text-anchor="middle" x="738.72" y="-572.14" font-family="Helvetica,sans-Serif" font-size="14.00" fill="#40d040">Rocket Soldier</text>
</a>
</g>
</g>
<!-- pyle&#45;&gt;e3 -->
<g id="edge37" class="edge">
<title>pyle&#45;&gt;e3</title>
<path fill="none" stroke="#40d040" stroke-dasharray="1,5" d="M621.99,-539.82C639.62,-545.31 659.06,-551.36 676.89,-556.91"/>
<polygon fill="#40d040" stroke="#40d040" points="676.02,-560.3 686.61,-559.93 678.1,-553.62 676.02,-560.3"/>
</g>
<!-- e7 -->
<g id="node23" class="node">
<title>e7</title>
<g id="a_node23"><a xlink:href="units.html#e7" xlink:title="Engineer" target="_top">
<polygon fill="none" stroke="#40d040" points="774.22,-539.84 703.22,-539.84 703.22,-503.84 774.22,-503.84 774.22,-539.84"/>
<text text-anchor="middle" x="738.72" y="-518.14" font-family="Helvetica,sans-Serif" font-size="14.00" fill="#40d040">Engineer</text>
</a>
</g>
</g>
<!-- pyle&#45;&gt;e7 -->
<g id="edge38" class="edge">
<title>pyle&#45;&gt;e7</title>
<path fill="none" stroke="#40d040" stroke-dasharray="1,5" d="M621.99,-521.84C645.12,-521.84 671.35,-521.84 692.98,-521.84"/>
<polygon fill="#40d040" stroke="#40d040" points="693.2,-525.34 703.2,-521.84 693.2,-518.34 693.2,-525.34"/>
</g>
<!-- mbo -->
<g id="node24" class="node">
<title>mbo</title>
<g id="a_node24"><a xlink:href="units.html#mbo" xlink:title="Commando" target="_top">
<polygon fill="none" stroke="#40d040" points="1214.72,-579.84 1126.72,-579.84 1126.72,-543.84 1214.72,-543.84 1214.72,-579.84"/>
<text text-anchor="middle" x="1170.72" y="-558.14" font-family="Helvetica,sans-Serif" font-size="14.00" fill="#40d040">Commando</text>
</a>
</g>
</g>
<!-- pyle&#45;&gt;mbo -->
<g id="edge40" class="edge">
<title>pyle&#45;&gt;mbo</title>
<path fill="none" stroke="#40d040" stroke-dasharray="1,5" d="M617.63,-503.79C630.9,-500.08 645.2,-496.73 658.72,-494.84 825.86,-471.43 1024.12,-518.89 1116.9,-545.5"/>
<polygon fill="#40d040" stroke="#40d040" points="1116.03,-548.89 1126.61,-548.32 1117.99,-542.17 1116.03,-548.89"/>
</g>
<!-- pyle&#45;&gt;apc -->
<g id="edge44" class="edge">
<title>pyle&#45;&gt;apc</title>
<path fill="none" stroke="#40d040" d="M602.94,-539.88C609.89,-543.97 616.79,-548.66 622.72,-553.84 643.05,-571.63 636.19,-587.91 658.72,-602.84 719.65,-643.21 763.19,-593.32 818.72,-640.84 850.82,-668.31 822.52,-701.47 854.72,-728.84 876.95,-747.74 909.86,-754.05 935.12,-755.88"/>
<polygon fill="#40d040" stroke="#40d040" points="935.25,-759.39 945.42,-756.41 935.61,-752.4 935.25,-759.39"/>
</g>
<!-- fix&#45;&gt;htnk -->
<g id="edge41" class="edge">
<title>fix&#45;&gt;htnk</title>
<path fill="none" stroke="#40d040" d="M585.13,-708.05C596.84,-718.75 611.33,-732.89 622.72,-746.84 641.43,-769.76 632.91,-788.37 658.72,-802.84 735.5,-845.88 840.38,-837.27 907.1,-825.13"/>
<polygon fill="#40d040" stroke="#40d040" points="907.89,-828.54 917.06,-823.24 906.58,-821.67 907.89,-828.54"/>
</g>
<!-- eye&#45;&gt;mbo -->
<g id="edge39" class="edge">
<title>eye&#45;&gt;mbo</title>
<path fill="none" stroke="#40d040" d="M998.94,-683.82C1033.83,-658.9 1096.92,-613.84 1135.88,-586.01"/>
<polygon fill="#40d040" stroke="#40d040" points="1138.18,-588.67 1144.28,-580.01 1134.11,-582.97 1138.18,-588.67"/>
</g>
<!-- eye&#45;&gt;msam -->
<g id="edge46" class="edge">
<title>eye&#45;&gt;msam</title>
<path fill="none" stroke="#40d040" d="M1059.83,-719.85C1070.31,-722.59 1080.81,-725.59 1090.72,-728.84 1103.48,-733.02 1117.03,-738.46 1129.23,-743.76"/>
<polygon fill="#40d040" stroke="#40d040" points="1128.13,-747.1 1138.69,-747.95 1130.97,-740.7 1128.13,-747.1"/>
</g>
<!-- eye&#45;&gt;mcv -->
<g id="edge52" class="edge">
<title>eye&#45;&gt;mcv</title>
<path fill="none" stroke="#40d040" d="M1078.29,-719.89C1082.7,-722.5 1086.88,-725.47 1090.72,-728.84 1118.99,-753.62 1149.35,-860.18 1162.72,-911.72"/>
<polygon fill="#40d040" stroke="#40d040" points="1159.37,-912.72 1165.24,-921.54 1166.15,-910.98 1159.37,-912.72"/>
</g>
<!-- mcv&#45;&gt;fact -->
<g id="edge9" class="edge">
<title>mcv:e&#45;&gt;fact:w</title>
<path fill="none" stroke="#40d040" stroke-dasharray="1,5" d="M1198.72,-939.84C1213.22,-939.84 1223.19,-1029.67 1143.72,-957.84 1088.04,-907.51 1132.75,-864.64 1126.72,-789.84 1121.37,-723.49 1135.73,-240.87 1090.72,-191.84 811.18,112.64 217.1,-25.2 165.72,-72.84 88.09,-144.81 207.35,-475.87 129.72,-547.84 89.14,-585.46 45.41,-585.87 5.22,-547.84 2.85,-545.6 0.92,-542.21 0,-538.97"/>
<polygon fill="#40d040" stroke="#40d040" points="3.2,-540.39 4.22,-529.84 -3.15,-537.45 3.2,-540.39"/>
</g>
</g>
</svg>
